<?xml version="1.0" encoding="UTF-8" standalone="no"?>
<svg xmlns="http://www.w3.org/2000/svg" xmlns:xlink="http://www.w3.org/1999/xlink" xmlns:serif="http://www.serif.com/" width="100%" height="100%" viewBox="0 0 540 540" xml:space="preserve" style="fill-rule:evenodd;clip-rule:evenodd;stroke-miterlimit:2;">
  <g>
    <g>
      <path d="M190.919,79.081l-111.838,0l0,111.838c0,-0 -79.081,79.081 -79.081,79.081l79.081,79.081l0,111.838l111.838,-0c-0,-0 79.081,79.081 79.081,79.081l79.081,-79.081c0,-0 111.838,-0 111.838,-0l-0,-111.838c-0,0 79.081,-79.081 79.081,-79.081l-79.081,-79.081c-0,-0 -0,-111.838 -0,-111.838l-111.838,0c0,0 -79.081,-79.081 -79.081,-79.081l-79.081,79.081Z" style="fill:#219653;"></path>
      <path d="M198.24,96.756l-101.484,-0l-0,101.484l-71.761,71.76l71.761,71.76l-0,101.484l101.484,0l71.76,71.761l71.76,-71.761l101.484,0l0,-101.484l71.761,-71.76l-71.761,-71.76l0,-101.484l-101.484,-0l-71.76,-71.761l-71.76,71.761Z" style="fill:#fff000;"></path>
      <path d="M276.249,60.405l-6.249,-6.248l-63.219,63.219c-0,-0 -89.405,-0 -89.405,-0l-0,89.405c-0,-0 -63.219,63.219 -63.219,63.219l63.219,63.219c-0,0 -0,89.405 -0,89.405l89.405,0c-0,0 63.219,63.219 63.219,63.219l63.219,-63.219c0,0 89.405,0 89.405,0l0,-89.405c0,0 63.219,-63.219 63.219,-63.219l-63.219,-63.219c0,-0 0,-89.405 0,-89.405l-89.405,-0c0,-0 -56.97,-56.971 -56.97,-56.971Z" style="fill:#219653;"></path>
      <path d="M270,66.654l59.559,59.559l84.228,-0l0,84.228l59.559,59.559l-59.559,59.559l0,84.228l-84.228,0l-59.559,59.559l-59.559,-59.559l-84.228,0l-0,-84.228l-59.559,-59.559l59.559,-59.559l-0,-84.228l84.228,-0l59.559,-59.559Z" style="fill:url(#_Radial1);"></path>
    </g>
    <path d="M221.658,389.297c-1.843,-0 -3.292,-0.312 -4.345,-0.934c-1.054,-0.623 -2.012,-1.509 -2.874,-2.658c-0.862,-1.173 -1.628,-2.298 -2.298,-3.376c-0.671,-1.077 -1.317,-2.298 -1.94,-3.663c-0.239,-0.527 -0.526,-0.886 -0.862,-1.078c-0.263,-0.167 -0.55,-0.251 -0.861,-0.251c-0.24,-0 -0.36,0.239 -0.36,0.718l0,6.968c0,0.718 0.198,1.221 0.593,1.508c0.395,0.288 1.131,0.551 2.209,0.79c0.239,0.048 0.413,0.132 0.52,0.252c0.108,0.119 0.162,0.287 0.162,0.503c0,0.359 -0.191,0.538 -0.575,0.538l-3.124,-0.072l-2.909,-0.071c-0.431,-0 -1.293,0.024 -2.586,0.071c-0.958,0.072 -1.892,0.108 -2.802,0.108c-0.143,0 -0.287,-0.054 -0.43,-0.161c-0.144,-0.108 -0.216,-0.234 -0.216,-0.378c0,-0.407 0.227,-0.67 0.682,-0.79c0.934,-0.191 1.563,-0.437 1.886,-0.736c0.323,-0.299 0.485,-0.808 0.485,-1.526l-0,-16.306c-0,-0.766 -0.144,-1.311 -0.431,-1.634c-0.288,-0.323 -0.862,-0.581 -1.724,-0.772c-0.503,-0.12 -0.754,-0.371 -0.754,-0.754c-0,-0.168 0.066,-0.306 0.197,-0.413c0.132,-0.108 0.305,-0.162 0.521,-0.162c0.862,0 1.82,0.048 2.873,0.144c0.958,0.096 1.712,0.143 2.263,0.143c0.455,0 1.113,-0.047 1.975,-0.143c1.054,-0.144 2.119,-0.216 3.197,-0.216c2.873,0 5.07,0.479 6.59,1.437c1.52,0.958 2.281,2.394 2.281,4.31c-0,1.46 -0.455,2.639 -1.365,3.537c-0.91,0.898 -2.023,1.539 -3.34,1.922c-0.072,0.024 -0.108,0.084 -0.108,0.179c-0,0.096 0.024,0.18 0.072,0.252c1.197,1.795 2.298,3.352 3.304,4.669c1.006,1.317 1.987,2.43 2.945,3.34c0.742,0.694 1.514,1.137 2.317,1.329c0.802,0.191 1.765,0.287 2.891,0.287c0.359,-0 0.538,0.227 0.538,0.682c0,1.605 -1.532,2.407 -4.597,2.407Zm125.883,-0.252c-3.329,0 -5.872,-0.868 -7.632,-2.604c-1.76,-1.735 -2.64,-4.1 -2.64,-7.093l-0,-10.056c-0,-0.67 -0.162,-1.287 -0.485,-1.85c-0.323,-0.562 -0.784,-0.927 -1.383,-1.095c-0.646,-0.168 -0.969,-0.431 -0.969,-0.79c-0,-0.168 0.089,-0.299 0.269,-0.395c0.18,-0.096 0.401,-0.144 0.664,-0.144c0.838,0 1.7,0.036 2.586,0.108c1.102,0.048 1.88,0.072 2.335,0.072c0.455,-0 1.305,-0.024 2.55,-0.072c1.293,-0.048 2.203,-0.072 2.729,-0.072c0.623,0 0.934,0.18 0.934,0.539c0,0.191 -0.096,0.347 -0.287,0.467c-0.192,0.119 -0.437,0.233 -0.737,0.341c-0.299,0.108 -0.544,0.209 -0.736,0.305c-0.886,0.431 -1.329,1.365 -1.329,2.801l0,9.267c0,2.25 0.515,3.956 1.545,5.117c1.029,1.162 2.334,1.742 3.914,1.742c2.131,0 3.718,-0.61 4.759,-1.831c1.042,-1.221 1.563,-3.125 1.563,-5.711c-0,-1.005 0.011,-1.784 0.035,-2.334l0.036,-2.694c0,-0.766 -0.012,-1.317 -0.036,-1.652c-0.024,-1.149 -0.101,-2.029 -0.233,-2.64c-0.132,-0.61 -0.329,-1.077 -0.593,-1.4c-0.263,-0.324 -0.658,-0.617 -1.185,-0.88c-0.167,-0.096 -0.383,-0.186 -0.646,-0.27c-0.264,-0.084 -0.467,-0.173 -0.611,-0.269c-0.143,-0.096 -0.215,-0.216 -0.215,-0.359c-0,-0.359 0.359,-0.539 1.077,-0.539c0.742,0 1.497,0.024 2.263,0.072l1.365,0.036c0.431,-0 0.957,-0.024 1.58,-0.072c0.622,-0.048 1.197,-0.072 1.724,-0.072c0.598,0 0.898,0.18 0.898,0.539c-0,0.335 -0.312,0.598 -0.934,0.79c-0.814,0.239 -1.389,0.61 -1.724,1.113c-0.335,0.503 -0.527,1.221 -0.575,2.155c-0.119,2.897 -0.179,6.034 -0.179,9.41c-0,1.939 -0.431,3.669 -1.293,5.19c-0.862,1.52 -2.029,2.705 -3.502,3.555c-1.472,0.85 -3.107,1.275 -4.902,1.275Zm-49.276,0c-3.328,0 -5.872,-0.868 -7.632,-2.604c-1.76,-1.735 -2.64,-4.1 -2.64,-7.093l0,-10.056c0,-0.67 -0.161,-1.287 -0.484,-1.85c-0.324,-0.562 -0.785,-0.927 -1.383,-1.095c-0.647,-0.168 -0.97,-0.431 -0.97,-0.79c0,-0.168 0.09,-0.299 0.27,-0.395c0.179,-0.096 0.401,-0.144 0.664,-0.144c0.838,0 1.7,0.036 2.586,0.108c1.101,0.048 1.879,0.072 2.334,0.072c0.455,-0 1.305,-0.024 2.55,-0.072c1.293,-0.048 2.203,-0.072 2.73,-0.072c0.622,0 0.934,0.18 0.934,0.539c-0,0.191 -0.096,0.347 -0.288,0.467c-0.191,0.119 -0.437,0.233 -0.736,0.341c-0.299,0.108 -0.545,0.209 -0.736,0.305c-0.886,0.431 -1.329,1.365 -1.329,2.801l-0,9.267c-0,2.25 0.515,3.956 1.544,5.117c1.03,1.162 2.335,1.742 3.915,1.742c2.131,0 3.717,-0.61 4.759,-1.831c1.041,-1.221 1.562,-3.125 1.562,-5.711c0,-1.005 0.012,-1.784 0.036,-2.334l0.036,-2.694c-0,-0.766 -0.012,-1.317 -0.036,-1.652c-0.024,-1.149 -0.102,-2.029 -0.233,-2.64c-0.132,-0.61 -0.33,-1.077 -0.593,-1.4c-0.263,-0.324 -0.659,-0.617 -1.185,-0.88c-0.168,-0.096 -0.383,-0.186 -0.647,-0.27c-0.263,-0.084 -0.467,-0.173 -0.61,-0.269c-0.144,-0.096 -0.216,-0.216 -0.216,-0.359c0,-0.359 0.359,-0.539 1.078,-0.539c0.742,0 1.496,0.024 2.262,0.072l1.365,0.036c0.431,-0 0.958,-0.024 1.58,-0.072c0.623,-0.048 1.198,-0.072 1.724,-0.072c0.599,0 0.898,0.18 0.898,0.539c0,0.335 -0.311,0.598 -0.934,0.79c-0.814,0.239 -1.388,0.61 -1.724,1.113c-0.335,0.503 -0.526,1.221 -0.574,2.155c-0.12,2.897 -0.18,6.034 -0.18,9.41c0,1.939 -0.431,3.669 -1.293,5.19c-0.862,1.52 -2.029,2.705 -3.501,3.555c-1.473,0.85 -3.107,1.275 -4.903,1.275Zm-58.793,0c-3.328,0 -5.872,-0.868 -7.632,-2.604c-1.76,-1.735 -2.64,-4.1 -2.64,-7.093l0,-10.056c0,-0.67 -0.161,-1.287 -0.484,-1.85c-0.324,-0.562 -0.785,-0.927 -1.383,-1.095c-0.647,-0.168 -0.97,-0.431 -0.97,-0.79c0,-0.168 0.09,-0.299 0.27,-0.395c0.179,-0.096 0.401,-0.144 0.664,-0.144c0.838,0 1.7,0.036 2.586,0.108c1.101,0.048 1.879,0.072 2.334,0.072c0.455,-0 1.305,-0.024 2.55,-0.072c1.293,-0.048 2.203,-0.072 2.73,-0.072c0.622,0 0.934,0.18 0.934,0.539c-0,0.191 -0.096,0.347 -0.288,0.467c-0.191,0.119 -0.437,0.233 -0.736,0.341c-0.299,0.108 -0.545,0.209 -0.736,0.305c-0.886,0.431 -1.329,1.365 -1.329,2.801l-0,9.267c-0,2.25 0.515,3.956 1.544,5.117c1.03,1.162 2.335,1.742 3.915,1.742c2.131,0 3.717,-0.61 4.759,-1.831c1.041,-1.221 1.562,-3.125 1.562,-5.711c0,-1.005 0.012,-1.784 0.036,-2.334l0.036,-2.694c-0,-0.766 -0.012,-1.317 -0.036,-1.652c-0.024,-1.149 -0.102,-2.029 -0.233,-2.64c-0.132,-0.61 -0.33,-1.077 -0.593,-1.4c-0.263,-0.324 -0.658,-0.617 -1.185,-0.88c-0.168,-0.096 -0.383,-0.186 -0.647,-0.27c-0.263,-0.084 -0.467,-0.173 -0.61,-0.269c-0.144,-0.096 -0.216,-0.216 -0.216,-0.359c0,-0.359 0.359,-0.539 1.078,-0.539c0.742,0 1.496,0.024 2.262,0.072l1.365,0.036c0.431,-0 0.958,-0.024 1.58,-0.072c0.623,-0.048 1.198,-0.072 1.724,-0.072c0.599,0 0.898,0.18 0.898,0.539c0,0.335 -0.311,0.598 -0.934,0.79c-0.814,0.239 -1.388,0.61 -1.724,1.113c-0.335,0.503 -0.526,1.221 -0.574,2.155c-0.12,2.897 -0.18,6.034 -0.18,9.41c0,1.939 -0.431,3.669 -1.293,5.19c-0.862,1.52 -2.029,2.705 -3.501,3.555c-1.473,0.85 -3.107,1.275 -4.903,1.275Zm123.728,-0.395c-0.551,0 -0.826,-0.179 -0.826,-0.539c-0,-0.143 0.053,-0.251 0.161,-0.323c0.108,-0.072 0.246,-0.131 0.413,-0.179c0.168,-0.048 0.299,-0.096 0.395,-0.144c0.599,-0.239 1.096,-0.599 1.491,-1.077c0.395,-0.479 0.64,-1.066 0.736,-1.76c0.192,-1.365 0.425,-3.67 0.7,-6.914c0.276,-3.244 0.449,-5.261 0.521,-6.052l0.144,-1.652c0.024,-0.143 0.036,-0.55 0.036,-1.221c-0,-0.838 -0.312,-1.424 -0.934,-1.76c-0.671,-0.359 -1.293,-0.61 -1.868,-0.754c-0.646,-0.167 -0.969,-0.431 -0.969,-0.79c-0,-0.383 0.311,-0.575 0.933,-0.575l2.658,0.072c2.801,0.072 4.298,0.108 4.489,0.108c0.168,-0 0.342,0.072 0.521,0.215c0.18,0.144 0.294,0.288 0.341,0.431c0.407,1.126 0.743,2 1.006,2.622l5.172,12.175c0.048,0.096 0.102,0.144 0.161,0.144c0.06,0 0.102,-0.048 0.126,-0.144l4.705,-11.313c0.335,-1.796 0.587,-2.945 0.754,-3.448c0.096,-0.311 0.3,-0.467 0.611,-0.467l1.616,0c0.718,-0.024 1.353,-0.059 1.903,-0.107c0.551,-0.048 1.006,-0.084 1.365,-0.108c1.245,-0.12 2.179,-0.18 2.802,-0.18c0.622,0 0.933,0.192 0.933,0.575c0,0.192 -0.065,0.335 -0.197,0.431c-0.132,0.096 -0.341,0.192 -0.629,0.287c-0.167,0.048 -0.317,0.108 -0.449,0.18c-0.131,0.072 -0.233,0.12 -0.305,0.144c-0.766,0.359 -1.299,0.748 -1.598,1.167c-0.299,0.419 -0.425,1.059 -0.377,1.921c0.191,4.358 0.455,9.003 0.79,13.935l0.108,1.473c0.095,1.077 0.957,1.843 2.586,2.298c0.263,0.096 0.46,0.192 0.592,0.288c0.132,0.095 0.198,0.251 0.198,0.467c-0,0.167 -0.066,0.299 -0.198,0.395c-0.132,0.095 -0.293,0.143 -0.485,0.143l-3.017,-0.072l-2.801,-0.071c-0.431,-0 -1.293,0.024 -2.586,0.071c-0.958,0.072 -1.891,0.108 -2.801,0.108c-0.216,0 -0.395,-0.048 -0.539,-0.143c-0.144,-0.096 -0.215,-0.228 -0.215,-0.396c-0,-0.407 0.263,-0.67 0.79,-0.79c0.934,-0.215 1.568,-0.473 1.903,-0.772c0.335,-0.299 0.491,-0.796 0.467,-1.49c-0.096,-1.581 -0.191,-4.119 -0.287,-7.614c-0.024,-1.389 -0.084,-3.149 -0.18,-5.28c0,-0.12 -0.036,-0.179 -0.108,-0.179c-0.071,-0 -0.143,0.083 -0.215,0.251l-6.537,16.198c-0.119,0.311 -0.299,0.467 -0.538,0.467c-0.24,-0 -0.431,-0.132 -0.575,-0.395c-0.527,-1.174 -1.023,-2.245 -1.49,-3.215c-0.467,-0.97 -0.88,-1.849 -1.239,-2.64c-2.131,-4.453 -3.676,-7.865 -4.634,-10.235c-0.071,-0.168 -0.167,-0.252 -0.287,-0.252c-0.191,0 -0.311,0.192 -0.359,0.575c-0.072,1.245 -0.108,2.729 -0.108,4.453l0.036,4.166c0.024,0.838 0.036,1.988 0.036,3.448c0,0.671 0.216,1.197 0.647,1.581c0.431,0.383 1.125,0.694 2.083,0.933c0.646,0.168 0.969,0.419 0.969,0.755c0,0.167 -0.089,0.299 -0.269,0.395c-0.18,0.095 -0.377,0.143 -0.593,0.143c-0.718,0 -1.436,-0.024 -2.155,-0.072l-1.544,-0.035c-0.694,-0 -1.466,0.017 -2.316,0.053c-0.85,0.036 -1.407,0.066 -1.67,0.09Zm-203.926,0.144c-1.078,-0 -2.873,-0.06 -5.387,-0.18l-1.868,-0.072l-2.586,0.036c-1.293,0.048 -2.227,0.072 -2.801,0.072c-0.144,0 -0.288,-0.054 -0.431,-0.161c-0.144,-0.108 -0.216,-0.234 -0.216,-0.378c0,-0.407 0.228,-0.67 0.683,-0.79c0.933,-0.191 1.562,-0.437 1.885,-0.736c0.323,-0.299 0.485,-0.808 0.485,-1.526l0,-16.306c0,-0.766 -0.156,-1.305 -0.467,-1.616c-0.311,-0.311 -0.946,-0.575 -1.903,-0.79c-0.455,-0.12 -0.683,-0.383 -0.683,-0.79c0,-0.144 0.072,-0.27 0.216,-0.377c0.143,-0.108 0.287,-0.162 0.431,-0.162c0.886,0 1.819,0.036 2.801,0.108c1.293,0.048 2.155,0.072 2.586,0.072c0.383,-0 1.461,-0.048 3.232,-0.144c2.634,-0.12 4.083,-0.18 4.346,-0.18c2.227,0 4.304,0.491 6.231,1.473c1.928,0.982 3.466,2.358 4.615,4.13c1.15,1.772 1.724,3.783 1.724,6.034c0,2.155 -0.502,4.172 -1.508,6.052c-1.006,1.879 -2.484,3.388 -4.436,4.525c-1.951,1.137 -4.267,1.706 -6.949,1.706Zm95.714,-0.072c-0.216,0 -0.384,-0.06 -0.503,-0.18c-0.12,-0.119 -0.18,-0.251 -0.18,-0.395c0,-0.143 0.066,-0.287 0.198,-0.431c0.131,-0.143 0.305,-0.251 0.52,-0.323c0.838,-0.239 1.407,-0.503 1.706,-0.79c0.3,-0.287 0.449,-0.778 0.449,-1.472l0,-16.378c0,-0.766 -0.155,-1.305 -0.467,-1.616c-0.311,-0.311 -0.945,-0.575 -1.903,-0.79c-0.455,-0.12 -0.682,-0.383 -0.682,-0.79c-0,-0.144 0.071,-0.27 0.215,-0.377c0.144,-0.108 0.287,-0.162 0.431,-0.162c0.886,0 1.82,0.036 2.801,0.108c1.293,0.048 2.155,0.072 2.586,0.072c0.455,-0 1.353,-0.024 2.694,-0.072c1.389,-0.048 2.346,-0.072 2.873,-0.072c0.383,0 0.575,0.18 0.575,0.539c-0,0.215 -0.054,0.377 -0.162,0.485c-0.108,0.107 -0.281,0.197 -0.521,0.269c-0.981,0.287 -1.616,0.587 -1.903,0.898c-0.287,0.311 -0.431,0.826 -0.431,1.544l-0,15.982c-0,0.647 0.138,1.114 0.413,1.401c0.275,0.287 0.724,0.431 1.347,0.431l3.483,0c0.91,0 1.736,-0.335 2.479,-1.006c0.67,-0.622 1.317,-1.592 1.939,-2.909c0.239,-0.503 0.425,-0.82 0.557,-0.951c0.131,-0.132 0.281,-0.198 0.449,-0.198c0.167,0 0.293,0.078 0.377,0.233c0.084,0.156 0.125,0.33 0.125,0.521c0,0.072 -0.017,0.186 -0.053,0.341c-0.036,0.156 -0.066,0.318 -0.09,0.485c-0.359,1.269 -0.611,2.203 -0.754,2.802c-0.144,0.598 -0.252,1.305 -0.324,2.119c-0.048,0.455 -0.251,0.682 -0.61,0.682l-3.125,-0.036c-3.639,-0.096 -6.752,-0.144 -9.338,-0.144c-0.814,0 -1.688,0.036 -2.622,0.108c-1.245,0.048 -2.095,0.072 -2.549,0.072Zm-82.066,0c-0.623,0 -0.934,-0.203 -0.934,-0.611c-0,-0.215 0.066,-0.377 0.197,-0.484c0.132,-0.108 0.33,-0.21 0.593,-0.306c0.718,-0.191 1.335,-0.491 1.85,-0.898c0.514,-0.407 0.891,-0.873 1.131,-1.4c2.275,-5.292 4.322,-10.487 6.141,-15.587c0.288,-0.79 0.515,-1.503 0.683,-2.137c0.167,-0.635 0.275,-0.952 0.323,-0.952c1.03,-0.239 1.927,-0.491 2.694,-0.754c0.407,-0.144 0.79,-0.335 1.149,-0.575c0.359,-0.239 0.634,-0.467 0.826,-0.682c0.191,-0.096 0.311,-0.144 0.359,-0.144c0.12,0 0.216,0.084 0.287,0.251c0.168,0.36 0.3,0.695 0.395,1.006c1.485,4.837 3.125,9.984 4.921,15.444l1.329,4.13c0.335,1.101 1.293,1.867 2.873,2.298c0.263,0.096 0.461,0.192 0.592,0.288c0.132,0.095 0.198,0.251 0.198,0.467c0,0.167 -0.066,0.299 -0.198,0.395c-0.131,0.095 -0.293,0.143 -0.484,0.143c-0.479,0 -1.437,-0.024 -2.874,-0.072c-1.484,-0.047 -2.514,-0.071 -3.088,-0.071c-0.479,-0 -1.389,0.024 -2.73,0.071c-1.101,0.072 -2.107,0.108 -3.017,0.108c-0.215,0 -0.395,-0.048 -0.538,-0.143c-0.144,-0.096 -0.216,-0.228 -0.216,-0.396c0,-0.407 0.263,-0.67 0.79,-0.79c0.838,-0.167 1.455,-0.377 1.85,-0.628c0.395,-0.252 0.592,-0.605 0.592,-1.06c0,-0.239 -0.023,-0.431 -0.071,-0.574l-1.114,-4.166c-0.048,-0.216 -0.113,-0.372 -0.197,-0.467c-0.084,-0.096 -0.21,-0.144 -0.377,-0.144l-6.25,-0c-0.191,-0 -0.323,0.048 -0.395,0.144c-0.071,0.095 -0.143,0.251 -0.215,0.467l-0.503,1.544c-0.072,0.263 -0.18,0.61 -0.323,1.041c-0.144,0.431 -0.264,0.815 -0.359,1.15c-0.096,0.311 -0.144,0.622 -0.144,0.933c0,0.455 0.174,0.809 0.521,1.06c0.347,0.251 0.963,0.485 1.849,0.7c0.527,0.12 0.791,0.383 0.791,0.79c-0,0.336 -0.252,0.503 -0.755,0.503c-0.55,0 -1.257,-0.024 -2.119,-0.072l-1.939,-0.035c-0.671,-0 -1.329,0.035 -1.975,0.107c-0.216,0.024 -0.539,0.048 -0.97,0.072c-0.431,0.024 -0.814,0.036 -1.149,0.036Zm140.858,0c-0.215,0 -0.383,-0.06 -0.502,-0.18c-0.12,-0.119 -0.18,-0.251 -0.18,-0.395c0,-0.143 0.066,-0.287 0.198,-0.431c0.131,-0.143 0.305,-0.251 0.52,-0.323c0.838,-0.239 1.407,-0.503 1.706,-0.79c0.3,-0.287 0.449,-0.778 0.449,-1.472l0,-16.378c0,-0.766 -0.155,-1.305 -0.467,-1.616c-0.311,-0.311 -0.945,-0.575 -1.903,-0.79c-0.455,-0.12 -0.683,-0.383 -0.683,-0.79c0,-0.144 0.072,-0.27 0.216,-0.377c0.144,-0.108 0.287,-0.162 0.431,-0.162c0.886,0 1.82,0.036 2.801,0.108c1.293,0.048 2.155,0.072 2.586,0.072c0.455,-0 1.353,-0.024 2.694,-0.072c1.389,-0.048 2.346,-0.072 2.873,-0.072c0.383,0 0.575,0.18 0.575,0.539c-0,0.215 -0.054,0.377 -0.162,0.485c-0.108,0.107 -0.281,0.197 -0.521,0.269c-0.981,0.287 -1.616,0.587 -1.903,0.898c-0.288,0.311 -0.431,0.826 -0.431,1.544l-0,15.982c-0,0.647 0.138,1.114 0.413,1.401c0.275,0.287 0.724,0.431 1.347,0.431l3.483,0c0.91,0 1.736,-0.335 2.479,-1.006c0.67,-0.622 1.316,-1.592 1.939,-2.909c0.239,-0.503 0.425,-0.82 0.557,-0.951c0.131,-0.132 0.281,-0.198 0.449,-0.198c0.167,0 0.293,0.078 0.377,0.233c0.084,0.156 0.125,0.33 0.125,0.521c0,0.072 -0.018,0.186 -0.053,0.341c-0.036,0.156 -0.066,0.318 -0.09,0.485c-0.359,1.269 -0.611,2.203 -0.754,2.802c-0.144,0.598 -0.252,1.305 -0.324,2.119c-0.048,0.455 -0.251,0.682 -0.61,0.682l-3.125,-0.036c-3.639,-0.096 -6.752,-0.144 -9.338,-0.144c-0.814,0 -1.688,0.036 -2.622,0.108c-1.245,0.048 -2.095,0.072 -2.55,0.072Zm-155.081,-1.903c2.299,-0 4.023,-0.821 5.172,-2.461c1.149,-1.64 1.724,-3.908 1.724,-6.806c-0,-3.256 -0.611,-5.836 -1.832,-7.739c-1.221,-1.904 -3.029,-2.856 -5.423,-2.856c-1.221,0 -2.059,0.066 -2.514,0.198c-0.455,0.132 -0.682,0.461 -0.682,0.988l-0,15.587c-0,1.101 0.281,1.891 0.844,2.37c0.562,0.479 1.466,0.719 2.711,0.719Zm27.403,-8.62c0.36,-0 0.539,-0.084 0.539,-0.251c0,-0.024 -0.024,-0.156 -0.072,-0.396l-2.298,-7.937c-0.072,-0.239 -0.144,-0.359 -0.216,-0.359c-0.048,0 -0.119,0.12 -0.215,0.359l-2.766,7.937c-0.048,0.096 -0.072,0.192 -0.072,0.288c0,0.119 0.06,0.209 0.18,0.269c0.12,0.06 0.263,0.09 0.431,0.09l4.489,-0Zm23.273,-2.083c1.245,-0 2.185,-0.407 2.82,-1.221c0.634,-0.814 0.951,-1.928 0.951,-3.34c0,-1.676 -0.311,-2.915 -0.933,-3.718c-0.623,-0.802 -1.521,-1.203 -2.694,-1.203c-0.503,0 -0.862,0.222 -1.077,0.665c-0.216,0.443 -0.324,1.323 -0.324,2.639l0,4.813c0,0.91 0.419,1.365 1.257,1.365Z" style="fill:#219653;fill-rule:nonzero;"></path>
    <path d="M80.278,78.972l111.524,0.366l79.086,-78.564l78.616,79.138l111.472,0.366l-0.366,111.524l78.616,79.086l-79.138,78.616l-0.366,111.524l-111.524,-0.418l-79.086,78.616l-78.616,-79.138l-111.524,-0.366l0.366,-111.524l-78.564,-79.086l79.138,-78.616l0.366,-111.524Zm14.73,14.835l102.854,0.313l72.974,-72.451l72.504,72.974l102.853,0.365l-0.313,102.854l72.451,72.922l-72.974,72.556l-0.365,102.853l-102.854,-0.366l-72.974,72.452l-72.504,-72.922l-102.853,-0.365l0.313,-102.854l-72.451,-72.974l72.974,-72.556l0.365,-102.801Z" style="fill:#094;"></path>
    <path d="M200.108,319.259c0.052,0.157 -0.052,0.47 -0.209,0.94c-0.209,0.47 -0.366,0.731 -0.522,0.731c-0.157,-0.052 -0.471,-0.156 -0.888,-0.47c-0.523,-0.313 -0.836,-0.574 -0.836,-0.731c-0.105,-0.157 0.209,-0.784 0.836,-1.776c0.574,0.261 1.097,0.679 1.619,1.306Zm101.443,-12.223c0.365,-0 0.731,-0.053 1.044,-0.262c0.314,-0.156 0.471,-0.365 0.471,-0.626c-0.471,-2.194 -1.045,-5.329 -1.724,-9.403c-0.157,-0.47 -0.314,-0.836 -0.523,-1.097c0,0 0.053,-0.47 0.209,-1.463c0.157,-0.783 0.314,-1.201 0.523,-1.201c0.052,-0 0.104,0.052 0.209,0.157c0.104,0.104 0.156,0.261 0.156,0.47c0.053,0.209 0.105,0.365 0.157,0.47c0.105,0.104 0.261,0.261 0.575,0.418c0.261,0.157 0.365,0.261 0.365,0.261c0,0.261 0,0.522 -0.052,0.731c-0.104,0.366 -0.261,0.836 -0.522,1.515c0.313,1.411 0.627,2.821 0.94,4.231c0.366,1.776 0.522,3.291 0.522,4.493c0,0.313 0,0.626 -0.052,0.94c-0.157,1.724 -0.888,2.664 -2.298,2.716l-0,0.052c-0.627,-0.052 -1.306,-0.104 -2.142,-0.156c-1.254,-0.262 -2.142,-0.679 -2.612,-1.15c-1.045,0.784 -2.089,1.202 -3.029,1.254l-0,0.052l-0.889,0c-1.828,-0.052 -3.656,0.836 -5.537,2.612c-1.462,1.62 -2.977,3.291 -4.44,4.91c-1.567,1.776 -2.925,2.664 -4.074,2.612c-1.306,-0.052 -1.933,-1.201 -1.881,-3.552c0,-0.836 0.209,-1.933 0.732,-3.186c0.418,-1.254 0.94,-2.299 1.515,-3.134c0.104,-0.209 0.261,-0.314 0.365,-0.314c0.105,0 0.209,0.105 0.209,0.261c0,0.053 -0.052,0.105 -0.052,0.157c-0.836,1.515 -1.254,3.03 -1.358,4.649c-0.052,0.575 0.052,1.045 0.261,1.515c0.261,0.47 0.575,0.731 1.045,0.731c0.679,0 1.462,-0.47 2.403,-1.462c0.992,-1.15 1.985,-2.247 2.977,-3.396c1.41,-1.515 2.925,-2.768 4.44,-3.656c0.366,-0.209 1.045,-0.47 1.933,-0.732c0.992,-0.261 1.776,-0.365 2.351,-0.365l-0,-0.052c0.522,-0.053 1.149,-0.314 1.932,-0.732c-0.052,-0.209 -0.052,-0.418 -0.052,-0.731c0,-1.463 0.47,-2.716 1.41,-3.761c0.523,-0.627 1.202,-0.94 1.933,-0.94c0.314,-0 0.575,0.261 0.731,0.731c0.157,0.418 0.209,0.94 0.209,1.463c0,1.358 -0.418,2.507 -1.358,3.447c0.627,0.366 1.62,0.575 2.978,0.575l-0,-0.052Zm-28.208,1.567c0,1.253 -0.313,2.559 -0.836,3.917c-0.574,0.888 -1.358,1.62 -2.455,2.194c-1.097,0.627 -2.246,0.941 -3.5,0.941c-1.201,-0.053 -2.141,-0.523 -2.873,-1.568c-0.731,-0.94 -1.044,-2.141 -1.044,-3.604c-0,-0.522 0.052,-1.149 0.209,-1.88c0.209,-0.888 0.418,-1.463 0.626,-1.829c0.157,-0.209 0.314,-0.313 0.418,-0.313c0.209,-0 0.262,0.157 0.262,0.47c-0,0.313 -0.053,0.679 -0.209,1.149c-0.157,0.47 -0.209,0.784 -0.209,0.993c-0,1.097 0.261,2.037 0.888,2.768c0.574,0.732 1.358,1.097 2.35,1.097c0.679,0 1.567,-0.209 2.664,-0.679c1.306,-0.574 2.142,-1.201 2.612,-1.985c-0.052,-1.254 -0.209,-2.35 -0.574,-3.291c-0.262,-0.574 -0.627,-1.149 -1.045,-1.619c-0.366,-0.418 -0.523,-0.679 -0.523,-0.731c0,-0.209 0.209,-0.993 0.627,-2.403c0.105,-0.157 0.261,-0.261 0.366,-0.209c0.104,-0 0.157,-0 0.209,0.104c0.47,0.784 0.94,1.829 1.41,3.134c0.47,1.411 0.679,2.508 0.627,3.344Zm59.915,4.962c0.052,0.157 0,0.47 -0.209,0.94c-0.157,0.47 -0.313,0.732 -0.47,0.732c-0.157,-0 -0.47,-0.157 -0.992,-0.471c-0.471,-0.313 -0.732,-0.522 -0.784,-0.731c0,-0.052 0.104,-0.365 0.366,-0.888c0.261,-0.47 0.418,-0.783 0.522,-0.836c0.522,0.262 1.045,0.679 1.567,1.254Zm2.507,-0.836c0,0.157 -0.104,0.47 -0.261,0.888c-0.209,0.575 -0.418,0.836 -0.679,0.888c-0.209,-0.052 -0.522,-0.209 -0.888,-0.522c-0.313,-0.313 -0.574,-0.575 -0.731,-0.784c0.418,-1.097 0.783,-1.671 1.045,-1.776c0.104,0 0.313,0.157 0.731,0.47c0.47,0.314 0.731,0.627 0.783,0.836Zm-5.431,-3.238l-0.001,0.052c-1.045,0.157 -3.03,0.418 -6.06,0.731c-0.679,0.052 -1.619,0.209 -2.82,0.523c-1.254,0.261 -2.299,0.417 -3.03,0.522c-0.888,-0.105 -1.828,-0.261 -2.716,-0.47c-0.888,-0.209 -1.776,-0.418 -2.664,-0.627c-0.157,-0.052 -0.261,-0.105 -0.47,-0.209c-0.262,-0.157 -0.366,-0.261 -0.366,-0.366c-0,-0.156 0.209,-0.209 0.575,-0.209c1.41,-0.156 2.768,-0.261 4.126,-0.418c0.784,-0.365 1.515,-0.94 2.299,-1.723c-0,-1.567 -0.209,-3.814 -0.784,-6.634c-0.366,-1.985 -0.784,-4.022 -1.201,-6.007c-0.418,-0.314 -0.627,-0.888 -0.627,-1.672c-0,-0.366 0.104,-0.836 0.261,-1.515c0.157,-0.627 0.313,-0.94 0.47,-0.94c0.052,-0 0.105,0.104 0.157,0.366c0.052,0.522 0.261,0.992 0.574,1.305c0.418,0.418 0.627,0.627 0.627,0.627c0.052,0.105 0.052,0.209 0.052,0.314c0,0.104 -0.052,0.261 -0.104,0.47c-0.157,0.313 -0.209,0.574 -0.261,0.836c0.418,2.246 0.888,4.544 1.306,6.79c0.209,1.097 0.261,2.038 0.261,2.821l-0,1.097c-0,0.627 -0.052,1.149 -0.052,1.567c1.828,-1.515 2.925,-2.403 3.186,-2.612c1.306,-0.94 2.403,-1.41 3.186,-1.358c0.732,0 1.411,0.209 2.194,0.679c0.732,0.47 1.097,0.94 1.097,1.358c0,0.47 -0.104,0.993 -0.418,1.567c-0.261,0.575 -0.574,0.993 -0.888,1.306c0.262,-0.104 0.992,-0.209 2.141,-0.47l0.001,-0.052c0.679,-0 1.306,-0.104 1.881,-0.366c0.418,-0.156 0.783,-0.574 1.149,-1.306c0.365,-0.626 0.627,-0.94 0.836,-0.94c0.052,0 0.156,0 0.209,0.052l-0,0.418c-0.053,0.209 -0.053,0.366 -0.053,0.523c0.053,0.209 0.314,0.522 0.888,0.992c0.627,0.418 1.097,0.679 1.463,0.679l0.025,-0.005c0.519,-0.106 1.188,-0.315 1.908,-0.726c-0.053,-0.209 -0.053,-0.47 -0.053,-0.731c0,-1.463 0.471,-2.769 1.411,-3.814c0.574,-0.626 1.201,-0.94 1.933,-0.94c0.313,0 0.574,0.261 0.731,0.784c0.157,0.418 0.261,0.94 0.261,1.462c-0.052,1.358 -0.47,2.508 -1.358,3.448c0.575,0.366 1.567,0.522 2.925,0.522l0.031,0c1.299,-0.003 2.803,-0.212 4.461,-0.679c1.359,-0.418 2.403,-0.783 3.082,-1.201c-0.104,-0.053 -0.626,-0.209 -1.462,-0.523c-0.993,-0.313 -1.62,-0.47 -1.881,-0.47c-0.261,0 -0.574,0.052 -0.835,0.157c-0.575,0.209 -0.888,0.313 -1.045,0.366c-0.575,0.104 -0.993,0.156 -1.254,0.156c0.209,-0.574 0.366,-1.149 0.522,-1.723c0.105,-0.314 0.314,-0.627 0.627,-0.941c0.679,-0.365 1.045,-0.574 1.045,-0.574c0.313,-0.157 0.731,-0.209 1.149,-0.209c0.209,-0 0.888,0.261 1.933,0.783c1.358,0.679 2.507,1.149 3.5,1.463c1.671,0.522 3.291,0.836 4.91,0.836c0.157,0.104 0.261,0.209 0.261,0.261c0,0.365 -0.209,0.888 -0.679,1.619c-1.201,0 -2.089,-0.052 -2.664,-0.209c-0.104,0.105 -0.104,0.261 -0.104,0.418c-0,0.105 -0,0.209 0.052,0.314c0.313,0.313 0.783,0.47 1.41,0.47c0.314,-0 0.679,-0.053 1.254,-0.105c0.521,-0.052 0.887,-0.104 1.096,-0.104l0.001,-0.053c0.679,0 1.306,-0.104 1.88,-0.365c0.418,-0.157 0.784,-0.575 1.15,-1.306c0.365,-0.627 0.626,-0.94 0.835,-0.94c0.053,-0 0.157,-0 0.209,0.052l0,0.418c-0.052,0.209 -0.052,0.365 -0.052,0.522c0.052,0.209 0.313,0.523 0.888,0.993c0.626,0.417 1.096,0.678 1.514,0.679l0.001,-0.053c0.366,0 0.679,-0.052 0.992,-0.261c0.314,-0.156 0.471,-0.365 0.471,-0.627c-0.471,-2.193 -1.045,-5.275 -1.724,-9.35c-0.157,-0.522 -0.314,-0.888 -0.523,-1.149c0,-0 0.105,-0.47 0.262,-1.41c0.104,-0.836 0.261,-1.254 0.47,-1.254c0.052,-0 0.156,0.052 0.209,0.157c0.104,0.104 0.156,0.261 0.209,0.47c-0,0.209 0.052,0.365 0.156,0.47c0.053,0.104 0.261,0.261 0.523,0.418c0.261,0.156 0.365,0.261 0.365,0.261c0,0.313 0,0.522 -0.052,0.731c-0.052,0.366 -0.261,0.888 -0.522,1.515c0.313,1.41 0.627,2.821 0.94,4.231c0.366,1.829 0.575,3.343 0.575,4.493c-0,0.313 -0.053,0.626 -0.053,0.94c-0.156,1.724 -0.94,2.664 -2.35,2.768l-0.005,0c-0.209,-0.001 -0.521,-0.105 -0.936,-0.261c-0.574,-0.209 -0.992,-0.47 -1.358,-0.731c-0.156,-0.157 -0.418,-0.627 -0.835,-1.463c-0.575,0.888 -0.941,1.358 -0.993,1.463c-0.627,0.626 -1.41,0.94 -2.297,0.94l-0.001,0.052c-0.105,0 -0.418,0 -0.888,0.053l-1.359,-0c-1.305,-0 -1.985,-0.627 -2.089,-1.881c-0.052,-0.261 -0.052,-0.575 0.052,-0.888c0.052,-0.313 0.052,-0.522 0.052,-0.522c0,-0.053 0,-0.105 -0.052,-0.105c-0.731,-0.052 -1.567,0.105 -2.507,0.523c-0.575,0.209 -1.672,0.574 -3.134,1.201c-0.941,0.418 -1.463,0.627 -1.62,0.679c-0.731,0.313 -1.41,0.522 -2.141,0.679c-0.47,0.105 -1.045,0.157 -1.672,0.157l0,0.052c-0.574,-0.052 -1.306,-0.104 -2.142,-0.157c-1.253,-0.313 -2.141,-0.679 -2.611,-1.149c-1.045,0.784 -2.09,1.202 -3.03,1.254l-0.01,-0c-0.209,-0.002 -0.519,-0.056 -0.93,-0.261c-0.575,-0.209 -0.993,-0.47 -1.358,-0.732c-0.157,-0.156 -0.418,-0.626 -0.836,-1.462c-0.575,0.888 -0.94,1.41 -0.993,1.462c-0.626,0.627 -1.409,0.94 -2.297,0.941Zm-130.957,-2.769c0.888,0 1.41,-0.261 1.462,-0.731c-0.104,-0.314 -0.313,-0.679 -0.627,-1.097c-0.209,-0.366 -0.365,-0.731 -0.418,-1.097c0.157,-0.366 0.366,-0.94 0.68,-1.567c-0,-0.052 0.052,-0.052 0.104,-0.052c0.261,-0 0.522,0.261 0.784,0.835c0.313,0.679 0.522,1.567 0.626,2.664c-0.052,0.941 -0.209,1.829 -0.574,2.612c-0.261,0.523 -0.94,0.784 -2.037,0.784l-0,0.052c-1.672,-0 -3.082,-0 -4.284,-0.052c-3.813,-0.053 -6.791,-0.732 -8.932,-1.933c-0.105,0.209 -0.209,0.575 -0.418,1.097c-0.105,0.313 -0.47,0.418 -1.045,0.261c-1.097,-0.261 -2.037,-0.627 -2.821,-1.097c-0.261,0.418 -0.679,0.94 -1.253,1.463c-0.784,0.731 -1.515,1.149 -2.142,1.253c-0.313,0.053 -1.097,0.262 -2.298,0.523c-0.47,0.157 -0.784,0.157 -0.836,0.052l-0,-0.157c0.94,-0.522 1.88,-1.044 2.821,-1.515c1.306,-0.731 2.402,-1.462 3.238,-2.141c0.314,-1.463 0.47,-2.351 0.575,-2.56c0.47,-1.097 1.201,-1.671 2.246,-1.671c0.052,-0 0.313,0.261 0.784,0.731c0.574,0.575 0.94,0.888 1.097,0.992c0.888,0.68 1.828,1.15 2.768,1.411c2.403,0.627 5.903,0.992 10.5,0.992l-0,-0.052Zm109.591,0.993c0.052,0.626 -0.052,1.149 -0.261,1.619c-0.104,0.209 -0.209,0.366 -0.313,0.366c-0.209,-0.053 -0.418,-0.784 -0.575,-2.299c-0.209,-1.88 -0.418,-3.761 -0.575,-5.641c-0.156,-1.15 -0.313,-2.56 -0.522,-4.284c-0.157,-1.253 -0.261,-1.932 -0.261,-2.141c-0,-0.888 0.157,-1.62 0.47,-2.142c0.105,-0.209 0.157,-0.261 0.209,-0.261c0.157,-0 0.313,0.522 0.418,1.567c0.052,0.209 0.261,2.142 0.679,5.798c0.366,3.186 0.627,5.642 0.731,7.418Zm-49.885,-0.157c0.052,0.574 -0,1.149 -0.262,1.619c-0.104,0.209 -0.209,0.314 -0.313,0.314c-0.209,-0 -0.418,-0.732 -0.575,-2.247c-0.209,-1.88 -0.417,-3.761 -0.574,-5.641c-0.105,-1.149 -0.314,-2.56 -0.523,-4.283c-0.156,-1.254 -0.208,-1.985 -0.208,-2.194c-0,-0.836 0.104,-1.567 0.417,-2.09c0.105,-0.209 0.209,-0.313 0.262,-0.313c0.104,-0 0.261,0.574 0.365,1.619c0.052,0.157 0.261,2.09 0.679,5.798c0.366,3.187 0.627,5.642 0.732,7.418Zm-7.418,1.828c-0.992,-0.052 -1.671,-0.104 -2.142,-0.209c-0.731,-0.261 -1.149,-0.679 -1.253,-1.306c-0,-0.209 -0,-0.47 0.104,-0.731c0.105,-0.366 0.209,-0.575 0.209,-0.575c-0.418,0 -1.045,0.053 -1.933,0.157c-3.447,0.47 -6.895,0.94 -10.342,1.41c-6.06,0.732 -11.231,1.097 -15.462,1.097c-0.836,-0.052 -2.142,-0.052 -3.917,-0.104l-0.001,0.052l-0.888,0c-1.776,-0.052 -3.657,0.836 -5.537,2.612c-1.463,1.619 -2.925,3.291 -4.388,4.91c-1.415,1.552 -2.631,2.426 -3.647,2.587l-0.01,0.025c-0.208,0.575 -0.417,0.888 -0.679,0.888c-0.209,0 -0.522,-0.209 -0.888,-0.522c-0.313,-0.314 -0.574,-0.575 -0.679,-0.784c0.073,-0.181 0.171,-0.388 0.293,-0.654c-0.266,-0.583 -0.397,-1.406 -0.397,-2.48c-0,-0.836 0.261,-1.881 0.731,-3.186c0.418,-1.254 0.94,-2.299 1.515,-3.135c0.157,-0.209 0.261,-0.313 0.366,-0.313c0.156,-0 0.209,0.104 0.209,0.261c-0,0.052 -0,0.105 -0.053,0.157c-0.783,1.515 -1.253,3.082 -1.358,4.649c0,0.574 0.052,1.045 0.261,1.515c0.262,0.47 0.627,0.731 1.045,0.731c0.679,0 1.515,-0.47 2.403,-1.463c0.993,-1.149 1.985,-2.246 2.977,-3.395c1.463,-1.515 2.926,-2.768 4.441,-3.656c0.365,-0.209 1.044,-0.471 1.985,-0.732c0.991,-0.261 1.774,-0.365 2.349,-0.365l0.001,-0.053c4.492,0.053 7.313,0 8.567,-0.052c4.179,-0.261 9.716,-0.783 16.559,-1.567c1.828,-0.209 4.074,-0.47 6.738,-0.836c0,-0.574 -0.522,-1.044 -1.567,-1.41c-0.731,-0.261 -1.306,-0.418 -1.619,-0.418c0.366,-0 -2.09,0.313 -7.261,0.888c-5.224,0.522 -9.298,0.836 -12.223,0.784c-3.082,-0 -5.015,-0.105 -5.955,-0.262c-1.358,-0.209 -2.037,-0.731 -2.037,-1.515c-0,-0.365 0.365,-1.044 0.992,-2.037c0.784,-1.097 1.672,-2.089 2.612,-2.977c3.291,-2.246 6.164,-3.761 8.567,-4.649c0.156,-0.052 0.313,-0.052 0.365,-0.052c0.105,-0 0.157,0.052 0.157,0.156c0,0.105 -0.104,0.314 -0.261,0.679c-0.261,0.262 -0.523,0.575 -0.784,0.993c-0.731,0.313 -2.141,0.992 -4.231,2.142c-1.619,0.94 -2.768,1.619 -3.395,2.089c-0.993,0.679 -1.881,1.358 -2.56,1.985c0.052,0.157 0.105,0.261 0.105,0.366c0.104,0.156 0.313,0.261 0.731,0.417c0.522,0.105 1.41,0.262 2.612,0.366c3.395,0.105 6.111,0.157 8.044,0.052c2.246,-0.052 4.493,-0.209 6.739,-0.47c2.35,-0.313 4.701,-0.574 7.052,-0.888c0.522,-0.052 0.992,-0.104 1.41,-0.052c0.522,-0 0.992,0.052 1.41,0.157c0.314,0.052 0.575,0.156 0.836,0.209c1.672,0.679 2.507,1.567 2.507,2.559c0,0.209 0,0.47 -0.104,0.679c-0.366,1.306 -0.836,2.038 -1.41,2.142c-0.053,0.052 -0.157,0.052 -0.314,0.104c-0.052,0.314 0.209,0.523 0.784,0.627l1.619,0l0,-0.104c0.418,-0 0.731,-0.105 1.045,-0.261c0.313,-0.157 0.47,-0.366 0.47,-0.627c-0.47,-2.194 -1.045,-5.328 -1.724,-9.403c-0.157,-0.47 -0.313,-0.888 -0.522,-1.097c-0,0 0.104,-0.522 0.261,-1.462c0.104,-0.784 0.261,-1.202 0.47,-1.202c0.052,0 0.157,0.052 0.209,0.157c0.104,0.104 0.157,0.261 0.209,0.47c-0,0.209 0.052,0.366 0.157,0.47c0.052,0.105 0.261,0.261 0.522,0.418c0.261,0.157 0.366,0.261 0.366,0.261c-0,0.261 -0,0.523 -0.053,0.679c-0.052,0.418 -0.261,0.888 -0.522,1.515c0.314,1.411 0.627,2.821 0.94,4.231c0.366,1.829 0.575,3.343 0.575,4.545c-0,0.313 -0.052,0.627 -0.052,0.888c-0.157,1.776 -0.941,2.664 -2.351,2.768l0,0.157Zm76.161,-3.238c-0.105,-0.157 -0.418,-0.366 -0.993,-0.627c-0.522,-0.209 -0.94,-0.366 -1.201,-0.366c-1.515,0 -3.448,1.254 -5.799,3.657c1.15,-0.209 2.299,-0.366 3.448,-0.575c1.985,-0.418 3.448,-1.149 4.545,-2.089Zm-49.05,-0.418c0.052,0.626 -0.053,1.149 -0.261,1.619c-0.105,0.209 -0.209,0.313 -0.314,0.313c-0.209,0 -0.418,-0.731 -0.575,-2.246c-0.208,-1.88 -0.417,-3.761 -0.574,-5.641c-0.157,-1.15 -0.314,-2.56 -0.522,-4.284c-0.157,-1.253 -0.262,-1.985 -0.262,-2.194c0,-0.835 0.157,-1.567 0.47,-2.089c0.105,-0.209 0.157,-0.313 0.209,-0.313c0.157,-0 0.262,0.574 0.418,1.619c0.053,0.209 0.261,2.142 0.679,5.798c0.366,3.186 0.627,5.642 0.732,7.418Zm62.997,-0.784c0.052,-0.522 -0,-0.992 -0.209,-1.306c-0.053,-0.157 -0.157,-0.313 -0.261,-0.47c-0.784,0.261 -1.306,0.836 -1.62,1.724c0,0.209 0.314,0.627 0.836,1.149c0.209,-0.104 0.627,-0.522 1.254,-1.097Zm-42.991,-0.157c0.052,-0.522 -0.052,-0.94 -0.209,-1.306c-0.104,-0.156 -0.156,-0.313 -0.313,-0.47c-0.731,0.314 -1.254,0.888 -1.567,1.724c-0,0.261 0.313,0.627 0.836,1.149c0.208,-0.104 0.626,-0.47 1.253,-1.097Zm-113.875,0.993c-0.366,-0.627 -0.574,-0.993 -0.627,-1.045c-0.156,-0.209 -0.47,-0.313 -0.836,-0.313c-0.261,-0 -0.47,0.209 -0.731,0.627c0.836,0.47 1.411,0.731 1.828,0.731l0.366,-0Zm84.518,-7.783c0,0.209 -0.104,0.574 -0.209,0.992c-0.208,0.575 -0.417,0.888 -0.679,0.888c-0.209,0 -0.522,-0.104 -0.94,-0.418c-0.522,-0.313 -0.783,-0.627 -0.783,-0.94c-0,-0.157 0.052,-0.47 0.209,-0.992c0.156,-0.523 0.261,-0.836 0.365,-0.993c0.157,0 0.523,0.157 1.045,0.418c0.627,0.313 0.992,0.679 0.992,1.045Zm92.876,-0.679c0.053,0.209 0,0.522 -0.208,0.992c-0.157,0.47 -0.366,0.731 -0.523,0.731c-0.157,0 -0.47,-0.156 -0.94,-0.47c-0.47,-0.313 -0.731,-0.522 -0.784,-0.679c-0.104,-0.209 0.209,-0.836 0.836,-1.828c0.523,0.261 1.097,0.679 1.619,1.254Zm2.769,-0.993c0,0.157 -0.052,0.47 -0.209,0.888c-0.209,0.575 -0.47,0.836 -0.731,0.888c-0.209,-0.052 -0.47,-0.209 -0.888,-0.522c-0.314,-0.314 -0.523,-0.575 -0.679,-0.836c0.104,-0.209 0.261,-0.522 0.47,-0.993c0.261,-0.417 0.418,-0.679 0.574,-0.731c0.053,0 0.314,0.157 0.732,0.47c0.47,0.314 0.731,0.627 0.731,0.836Zm-39.125,-0.261c-0.261,0.888 -0.47,1.358 -0.679,1.515l-0.157,-0c-0.313,-0 -0.679,-0.105 -1.149,-0.261c-0.522,-0.262 -0.783,-0.471 -0.783,-0.732c-0,-0.052 0.052,-0.104 0.104,-0.209c0.052,-0.052 0.209,-0.418 0.47,-0.992c0.157,-0.418 0.366,-0.627 0.575,-0.627c0.052,-0 0.104,-0 0.209,0.052c0.313,0.157 0.679,0.314 0.992,0.523c0.314,0.156 0.47,0.365 0.47,0.574c0,0.052 0,0.105 -0.052,0.157Zm-29.409,-2.455l0,0.052c0,0.261 -0.052,0.575 -0.209,0.993c-0.157,0.417 -0.313,0.626 -0.47,0.626c-0.157,0 -0.47,-0.156 -0.94,-0.47c-0.523,-0.313 -0.784,-0.522 -0.836,-0.679c-0.052,-0.261 0.209,-0.836 0.888,-1.828c0.522,0.209 1.045,0.627 1.567,1.306Zm44.505,-0.314c-0.261,0.888 -0.522,1.411 -0.731,1.567l-0.104,0c-0.314,0 -0.68,-0.104 -1.15,-0.261c-0.522,-0.261 -0.783,-0.47 -0.783,-0.731c-0,-0.052 -0,-0.104 0.052,-0.157c0.105,-0.156 0.261,-0.47 0.47,-1.044c0.209,-0.471 0.366,-0.68 0.575,-0.68c0.052,0 0.104,0.053 0.209,0.053c0.313,0.209 0.679,0.365 1.044,0.522c0.314,0.157 0.471,0.366 0.471,0.575c-0,0.052 -0.053,0.104 -0.053,0.156Zm-41.684,-0.731c-0,0.157 -0.105,0.418 -0.261,0.888c-0.209,0.522 -0.471,0.836 -0.679,0.836c-0.209,-0 -0.523,-0.157 -0.888,-0.522c-0.366,-0.262 -0.575,-0.523 -0.68,-0.784c0.053,-0.209 0.209,-0.575 0.471,-1.045c0.209,-0.418 0.365,-0.679 0.47,-0.679c0.104,0 0.418,0.157 0.835,0.47c0.418,0.314 0.68,0.627 0.732,0.836Zm-18.335,-8.723c-0.105,0.626 -0.523,1.201 -1.254,1.619c-1.88,1.201 -3.918,1.776 -6.111,1.776c-1.881,-0.052 -3.03,-0.261 -3.448,-0.784c-0.261,0.209 -0.47,0.418 -0.627,0.679c-0.209,0.314 -0.418,0.575 -0.522,0.68l-0.261,-0c-0.053,-0.053 -0.105,-0.157 -0.157,-0.418c-0.052,-0.157 0.261,-0.679 0.888,-1.567c0.627,-0.941 1.045,-1.411 1.201,-1.411c0.053,-0.052 0.209,0 0.47,0.157c0.314,0.157 0.68,0.313 0.941,0.47c0.94,0.366 1.88,0.522 2.873,0.418c2.559,-0.261 4.44,-1.045 5.746,-2.246c0.261,-0 0.313,0.209 0.261,0.627Z" style="fill:#219653;fill-rule:nonzero;"></path>
    <path d="M216.667,208.622l108.703,0.366l27.424,61.325l-72.765,-0.261c-3.656,-8.723 -13.738,-10.134 -16.611,-0.052l-71.825,-0.261l25.074,-61.117Z" style="fill:#094;stroke:#094;stroke-width:1.83px;"></path>
    <path d="M270.992,208.831c14.836,-15.462 30.872,-2.925 47.901,-2.873l19.171,57.878c-22.409,-0.104 -46.125,-22.566 -67.228,-2.977l0.156,-52.028Z" style="fill:#fefefe;stroke:#094;stroke-width:1.83px;"></path>
    <path d="M270.992,208.831c-14.678,-15.566 -30.819,-3.134 -47.848,-3.186l-19.536,57.721c22.409,0.052 46.281,-22.2 67.228,-2.507l0.156,-52.028Z" style="fill:#fefefe;stroke:#094;stroke-width:1.83px;"></path>
    <path d="M223.144,205.645l-6.477,2.977l-25.074,61.117l12.015,-6.373l19.536,-57.721Z" style="fill:#094;stroke:#094;stroke-width:1.83px;"></path>
    <path d="M318.893,205.958l6.477,3.03l27.424,61.325l-14.73,-6.477l-19.171,-57.878Z" style="fill:#094;stroke:#094;stroke-width:1.83px;"></path>
    <path d="M80.278,78.972l111.524,0.366l79.086,-78.564l78.616,79.138l111.472,0.366l-0.366,111.524l78.616,79.086l-79.138,78.616l-0.366,111.524l-111.524,-0.418l-79.086,78.616l-78.616,-79.138l-111.524,-0.366l0.366,-111.524l-78.564,-79.086l79.138,-78.616l0.366,-111.524Zm14.73,14.835l102.854,0.313l72.974,-72.451l72.504,72.974l102.853,0.365l-0.313,102.854l72.451,72.922l-72.974,72.556l-0.365,102.853l-102.854,-0.366l-72.974,72.452l-72.504,-72.922l-102.853,-0.365l0.313,-102.854l-72.451,-72.974l72.974,-72.556l0.365,-102.801Z" style="fill:#219653;"></path>
  </g>
  <path d="M336.313,343.954c-0.321,0.025 -0.587,0.037 -0.797,0.037c-1.286,-0 -2.201,-0.189 -2.745,-0.566c-0.544,-0.377 -0.884,-0.979 -1.02,-1.808c-0.136,-0.828 -0.204,-2.213 -0.204,-4.154c0,-1.94 0.068,-3.325 0.204,-4.153c0.136,-0.829 0.476,-1.431 1.02,-1.808c0.544,-0.377 1.459,-0.566 2.745,-0.566c1.273,-0 2.185,0.189 2.735,0.566c0.55,0.377 0.893,0.982 1.029,1.817c0.136,0.834 0.204,2.216 0.204,4.144c0,1.744 -0.059,3.023 -0.176,3.839c-0.118,0.816 -0.393,1.44 -0.825,1.873l1.669,2.707l-0,0.093l-2.689,0l-1.15,-2.021Zm-17.839,-12.87l-0,7.103c-0,1.681 -0.071,2.902 -0.213,3.662c-0.143,0.76 -0.476,1.307 -1.002,1.641c-0.525,0.334 -1.388,0.501 -2.587,0.501c-1.199,-0 -2.061,-0.167 -2.587,-0.501c-0.525,-0.334 -0.859,-0.881 -1.001,-1.641c-0.142,-0.76 -0.213,-1.981 -0.213,-3.662l-0,-7.103l2.54,0l0,7.956c0,0.902 0.022,1.523 0.065,1.863c0.043,0.34 0.149,0.566 0.315,0.677c0.167,0.111 0.461,0.167 0.881,0.167c0.421,0 0.711,-0.056 0.872,-0.167c0.161,-0.111 0.263,-0.334 0.306,-0.667c0.043,-0.334 0.065,-0.958 0.065,-1.873l-0,-7.956l2.559,0Zm30.597,0l0,7.103c0,1.681 -0.071,2.902 -0.213,3.662c-0.142,0.76 -0.476,1.307 -1.001,1.641c-0.526,0.334 -1.388,0.501 -2.587,0.501c-1.199,-0 -2.062,-0.167 -2.587,-0.501c-0.526,-0.334 -0.859,-0.881 -1.002,-1.641c-0.142,-0.76 -0.213,-1.981 -0.213,-3.662l0,-7.103l2.541,0l-0,7.956c-0,0.902 0.021,1.523 0.065,1.863c0.043,0.34 0.148,0.566 0.315,0.677c0.167,0.111 0.46,0.167 0.881,0.167c0.42,0 0.711,-0.056 0.871,-0.167c0.161,-0.111 0.263,-0.334 0.306,-0.667c0.044,-0.334 0.065,-0.958 0.065,-1.873l0,-7.956l2.559,0Zm-122.705,12.759l-0.5,-2.615l-2.856,-0l-0.501,2.615l-2.54,-0l2.633,-12.759l3.727,0l2.633,12.759l-2.596,-0Zm130.104,-0l-1.242,-4.451l-1.372,0l-0,4.451l-2.56,-0l0,-12.759l4.303,0c0.914,0 1.604,0.155 2.067,0.464c0.464,0.309 0.776,0.754 0.937,1.335c0.16,0.581 0.241,1.36 0.241,2.337c-0,0.927 -0.084,1.693 -0.251,2.299c-0.166,0.606 -0.503,1.063 -1.01,1.372l1.539,4.952l-2.652,-0Zm-190.817,-0l0,-9.402l-0.111,-0l-1.836,9.402l-2.355,-0l-1.798,-9.402l-0.149,-0l0,9.402l-2.392,-0l-0,-12.759l3.857,0l1.669,8.827l0.13,0l1.65,-8.827l3.802,0l-0,12.759l-2.467,-0Zm205.485,-0l-0.5,-2.615l-2.856,-0l-0.501,2.615l-2.54,-0l2.633,-12.759l3.727,0l2.634,12.759l-2.597,-0Zm-105.292,-0l-0.501,-2.615l-2.855,-0l-0.501,2.615l-2.54,-0l2.633,-12.759l3.727,0l2.633,12.759l-2.596,-0Zm114.843,-0l-2.967,-6.992l-0.075,0l0,6.992l-2.429,-0l0,-12.759l2.466,0l2.763,6.454l0.093,-0l0,-6.454l2.448,0l0,12.759l-2.299,-0Zm-126.322,-0l0,-10.441l-2.41,0l-0,-2.318l7.38,0l0,2.318l-2.41,0l-0,10.441l-2.56,-0Zm33.213,-0l-0,-12.759l2.54,0l0,12.759l-2.54,-0Zm-57.134,-0l-0,-12.759l2.559,0l-0,10.441l3.227,-0l-0,2.318l-5.786,-0Zm90.253,-0l0,-12.759l2.559,0l0,10.441l3.227,-0l-0,2.318l-5.786,-0Zm-40.778,-0l-0,-12.759l5.915,0l0,2.244l-3.356,0l0,3.245l2.949,0l-0,2.244l-2.949,0l0,5.026l-2.559,-0Zm12.128,-0l-0,-2.114l4.098,-8.401l-3.968,0l-0,-2.244l6.824,0l-0,2.096l-4.117,8.419l4.154,-0l-0,2.244l-6.991,-0Zm-88.418,-12.759l3.45,0c1.31,0 2.246,0.183 2.809,0.547c0.562,0.365 0.912,0.952 1.048,1.762c0.136,0.81 0.204,2.167 0.204,4.07c-0,1.904 -0.068,3.261 -0.204,4.071c-0.136,0.81 -0.486,1.397 -1.048,1.762c-0.563,0.364 -1.499,0.547 -2.809,0.547l-3.45,-0l0,-12.759Zm35.104,12.759l-0,-4.414l-3.023,-8.345l2.615,0l1.669,5.508l0.167,-0l1.613,-5.508l2.522,0l-3.023,8.345l0,4.414l-2.54,-0Zm-49.605,-0l0,-5.248l-2.615,-0l0,5.248l-2.54,-0l-0,-12.759l2.54,0l0,5.156l2.615,-0l0,-5.156l2.541,0l-0,12.759l-2.541,-0Zm-13.129,-0l-0.501,-2.615l-2.855,-0l-0.501,2.615l-2.541,-0l2.634,-12.759l3.727,0l2.633,12.759l-2.596,-0Zm99.08,-0l0,-5.248l-2.615,-0l0,5.248l-2.54,-0l-0,-12.759l2.54,0l0,5.156l2.615,-0l0,-5.156l2.541,0l-0,12.759l-2.541,-0Zm31.024,-0l-0,-5.248l-2.615,-0l0,5.248l-2.54,-0l-0,-12.759l2.54,0l0,5.156l2.615,-0l-0,-5.156l2.54,0l0,12.759l-2.54,-0Zm-106.553,-0l-0.501,-2.615l-2.856,-0l-0.5,2.615l-2.541,-0l2.633,-12.759l3.728,0l2.633,12.759l-2.596,-0Zm135.964,-2.096c0.494,0 0.828,-0.068 1.001,-0.204c0.173,-0.136 0.284,-0.473 0.334,-1.011c0.049,-0.537 0.074,-1.56 0.074,-3.069c-0,-1.508 -0.025,-2.531 -0.074,-3.069c-0.05,-0.537 -0.161,-0.874 -0.334,-1.01c-0.173,-0.136 -0.507,-0.204 -1.001,-0.204c-0.495,-0 -0.829,0.068 -1.002,0.204c-0.173,0.136 -0.284,0.47 -0.334,1.001c-0.049,0.532 -0.074,1.558 -0.074,3.078c0,1.521 0.025,2.547 0.074,3.079c0.05,0.531 0.161,0.865 0.334,1.001c0.173,0.136 0.507,0.204 1.002,0.204Zm-128.473,-0.148c0.544,-0 0.912,-0.065 1.104,-0.195c0.191,-0.13 0.315,-0.454 0.371,-0.974c0.055,-0.519 0.083,-1.508 0.083,-2.967c0,-1.446 -0.031,-2.432 -0.093,-2.957c-0.061,-0.526 -0.185,-0.853 -0.37,-0.983c-0.186,-0.13 -0.551,-0.195 -1.095,-0.195l-0.871,0l-0,8.271l0.871,-0Zm-32.915,-8.104l-0.111,0l-1.002,5.526l2.096,0l-0.983,-5.526Zm195.138,0l-0.112,0l-1.001,5.526l2.095,0l-0.982,-5.526Zm-171.587,0l-0.111,0l-1.002,5.526l2.096,0l-0.983,-5.526Zm26.814,0l-0.111,0l-1.001,5.526l2.095,0l-0.983,-5.526Zm39.48,0l-0.111,0l-1.001,5.526l2.095,0l-0.983,-5.526Zm91.014,3.69c0.408,0 0.698,-0.046 0.871,-0.139c0.173,-0.093 0.288,-0.266 0.343,-0.519c0.056,-0.253 0.084,-0.683 0.084,-1.289c-0,-0.593 -0.028,-1.014 -0.084,-1.261c-0.055,-0.247 -0.17,-0.417 -0.343,-0.51c-0.173,-0.092 -0.463,-0.139 -0.871,-0.139l-1.131,0l-0,3.857l1.131,0Zm5.748,-2.225c0.408,0 0.677,-0.09 0.807,-0.269c0.13,-0.179 0.195,-0.522 0.195,-1.029l-0,-0.278l-0.928,-0l0,-2.3l2.467,0l-0,1.632c-0,0.927 -0.056,1.614 -0.167,2.059c-0.111,0.445 -0.343,0.763 -0.695,0.955c-0.353,0.191 -0.912,0.287 -1.679,0.287l0,-1.057Zm-143.863,-0.575c-0,-0.927 0.055,-1.613 0.167,-2.058c0.111,-0.445 0.343,-0.764 0.695,-0.955c0.352,-0.192 0.906,-0.288 1.66,-0.288l-0,1.057c-0.408,0 -0.677,0.09 -0.807,0.269c-0.13,0.179 -0.195,0.523 -0.195,1.029l0,0.279l0.946,-0l0,2.299l-2.466,0l-0,-1.632Zm-37.719,0.575c0.408,0 0.677,-0.09 0.807,-0.269c0.13,-0.179 0.195,-0.522 0.195,-1.029l-0,-0.278l-0.927,-0l-0,-2.3l2.466,0l-0,1.632c-0,0.927 -0.056,1.614 -0.167,2.059c-0.111,0.445 -0.343,0.763 -0.695,0.955c-0.353,0.191 -0.912,0.287 -1.679,0.287l0,-1.057Z" style="fill:#219653;fill-rule:nonzero;"></path>
  <path d="M174.919,197.602l-2.16,2.195l-8.151,-2.029c0.041,0.166 0.082,0.373 0.123,0.58c0.04,0.165 0.081,0.331 0.081,0.455c0.041,0.166 0.041,0.331 0.041,0.538l-0,0.497l1.671,0.456c0.367,0.124 0.693,0.207 1.019,0.331c0.326,0.124 0.611,0.207 0.815,0.331c0.448,0.207 0.856,0.497 1.182,0.829c0.896,0.828 1.385,1.822 1.508,2.94c0.081,1.118 -0.286,2.111 -1.06,2.898c-0.367,0.373 -0.734,0.621 -1.1,0.828c-0.408,0.166 -0.856,0.249 -1.345,0.207c-0.489,-0.082 -0.897,-0.082 -1.304,-0.041c-0.367,0.041 -0.653,0.166 -0.816,0.331c-0.081,0.083 -0.122,0.166 -0.163,0.29l-0.122,0.373l-0.163,-0.207c-0.244,-0.207 -0.407,-0.497 -0.407,-0.87c-0,-0.331 0.081,-0.621 0.326,-0.869c0.163,-0.166 0.448,-0.29 0.896,-0.373l-0.367,-0.207l-0.203,-0.207c-0.53,-0.497 -0.897,-1.077 -1.06,-1.781c-0.082,-0.372 -0.163,-0.745 -0.163,-1.159c-0,-0.414 -0,-0.911 0.081,-1.449l-0.978,-0.332c-0.407,-0.165 -0.733,-0.29 -0.937,-0.372c-0.204,-0.125 -0.408,-0.29 -0.652,-0.539c-0.367,-0.331 -0.611,-0.621 -0.734,-0.911c-0.081,-0.165 -0.163,-0.331 -0.244,-0.538c-0.082,-0.207 -0.123,-0.414 -0.163,-0.621l-1.264,-5.632l3.424,0.87c-0.204,-0.331 -0.53,-0.745 -1.06,-1.242c-0.774,-0.746 -1.671,-1.16 -2.69,-1.243c-1.019,-0.082 -1.834,0.207 -2.445,0.829c-0.448,0.414 -0.693,0.911 -0.734,1.449c-0.081,0.538 0,1.076 0.286,1.573c0.163,0.207 0.163,0.373 0.081,0.456c-0.163,0.165 -0.53,-0.083 -1.182,-0.663c-0.285,-0.29 -0.489,-0.497 -0.57,-0.621c-0.123,-0.124 -0.163,-0.248 -0.245,-0.331c-0.041,-0.083 -0.122,-0.207 -0.204,-0.373c0.163,-0.041 0.286,-0.083 0.367,-0.207c0.122,-0.124 0.204,-0.248 0.204,-0.455c-0,-0.166 -0.082,-0.332 -0.204,-0.456c-0.163,-0.165 -0.326,-0.207 -0.489,-0.248c-0.163,-0 -0.326,0.041 -0.448,0.165l-0.204,0.207l-0.163,-0.124l-0.204,-0.124c-0.081,-0.083 -0.163,-0.207 -0.285,-0.331c-0.082,-0.124 -0.122,-0.332 -0.204,-0.621c-0.081,-0.414 -0.041,-0.663 0.041,-0.746c0.081,-0.041 0.122,-0.041 0.204,0l0.244,0.083c0.612,0.29 1.06,0.456 1.427,0.497c0.244,-0 0.529,-0 0.896,-0.083c0.326,-0.041 0.815,-0.165 1.345,-0.29c1.141,-0.331 2.16,-0.414 3.057,-0.207c0.856,0.207 1.712,0.663 2.486,1.45c0.693,0.621 1.182,1.242 1.426,1.863l8.477,2.112l1.101,-1.077l2.078,1.946Zm-10.922,0l-1.223,-0.331l0.163,0.745c0.082,0.332 0.123,0.622 0.204,0.787c0.041,0.042 0.082,0.124 0.163,0.207c0.041,0.124 0.122,0.166 0.163,0.249c0.163,0.124 0.245,0.207 0.367,0.248c0.081,0.042 0.244,0.124 0.489,0.166l-0,-0.621c-0,-0.166 -0.041,-0.332 -0.041,-0.497c-0.041,-0.207 -0.122,-0.539 -0.285,-0.953Zm4.035,6.377c-0.123,-0.083 -0.204,-0.165 -0.286,-0.207c-0.081,-0.083 -0.244,-0.165 -0.448,-0.248c-0.326,-0.166 -0.611,-0.249 -0.856,-0.332l-1.793,-0.538c-0.122,0.828 -0.122,1.615 0.041,2.236c0.163,0.663 0.489,1.16 0.937,1.615c0.326,0.331 0.775,0.497 1.304,0.538c0.489,0 0.897,-0.165 1.264,-0.538c0.326,-0.331 0.489,-0.745 0.448,-1.242c0,-0.456 -0.204,-0.911 -0.611,-1.284Zm6.398,2.692c0.326,0.331 0.53,0.745 0.571,1.242c0.041,0.497 -0.122,0.911 -0.448,1.242c-0.326,0.332 -0.775,0.497 -1.264,0.497c-0.489,0 -0.896,-0.207 -1.263,-0.538c-0.367,-0.331 -0.571,-0.745 -0.612,-1.242c0,-0.497 0.123,-0.911 0.49,-1.243c0.285,-0.289 0.692,-0.455 1.181,-0.455c0.53,-0 0.979,0.166 1.345,0.497Zm-2.853,2.857c0.367,0.331 0.571,0.745 0.612,1.242c0.041,0.497 -0.122,0.911 -0.449,1.242c-0.366,0.332 -0.774,0.497 -1.263,0.497c-0.489,0 -0.937,-0.165 -1.304,-0.538c-0.367,-0.331 -0.571,-0.745 -0.571,-1.242c0,-0.497 0.123,-0.911 0.449,-1.242c0.326,-0.332 0.733,-0.456 1.263,-0.456c0.489,0 0.937,0.166 1.263,0.497Zm0.653,-13.334l5.135,-3.933l-8.763,-11.015c0.082,-0.29 0.163,-0.538 0.204,-0.745c0.122,-0.539 0.204,-0.994 0.204,-1.367c0.041,-0.331 -0,-0.745 -0.122,-1.283c-0.041,-0.166 -0.082,-0.415 -0.163,-0.704l12.552,15.693l-7.254,5.59l-1.793,-2.236Zm11.778,-5.341l3.301,-2.361l-1.671,-2.277l-1.141,0.787l-8.762,-11.802c-0.041,-0.124 -0.082,-0.248 -0.123,-0.331c-0.041,-0.248 -0.041,-0.455 0,-0.621c0.041,-0.207 0.163,-0.456 0.367,-0.787c0.082,-0.124 0.204,-0.29 0.367,-0.455c-0.082,0.083 -0.163,0.124 -0.204,0.165c-0.367,0.29 -0.693,0.58 -0.978,0.787c-0.367,0.249 -0.652,0.414 -0.937,0.538c-0.449,0.166 -0.979,0.249 -1.631,0.166c-0.163,-0.041 -0.448,-0.083 -0.774,-0.207l12.186,16.398Zm17.932,-10.849l-5.216,2.94c-0.775,-0.621 -1.468,-1.077 -2.12,-1.325c-0.489,-0.166 -1.263,-0.373 -2.364,-0.58c-0.163,0.497 -0.326,0.952 -0.407,1.325c-0.122,0.373 -0.204,0.704 -0.245,0.952c-0.081,0.704 -0.04,1.533 0.123,2.444l-4.809,2.732l-1.468,-2.484l3.302,-1.822c-0,-0.29 -0,-0.58 0.04,-0.911c0,-0.29 0.041,-0.497 0.041,-0.621c0.041,-0.083 0.082,-0.331 0.163,-0.663c0.082,-0.29 0.163,-0.497 0.204,-0.662c-0.897,-0.042 -1.956,0.331 -3.301,1.076c-0.449,-0.786 -0.652,-1.573 -0.571,-2.401c0.041,-0.828 0.408,-1.698 0.978,-2.609c-0.53,-0.87 -0.693,-1.822 -0.53,-2.816c0.041,-0.414 0.204,-0.787 0.408,-1.201c0.204,-0.455 0.448,-0.869 0.774,-1.325c1.101,-0.124 1.997,-0.041 2.812,0.249c0.897,0.29 1.671,0.952 2.242,1.905c1.1,-0.083 2.038,0.082 2.812,0.414c0.367,0.165 0.734,0.414 1.019,0.662c0.285,0.29 0.571,0.621 0.815,1.077c-1.304,0.745 -2.201,1.491 -2.608,2.236c0.611,0.124 1.059,0.248 1.304,0.373c0.367,0.124 0.856,0.331 1.426,0.662l3.75,-2.112l1.426,2.485Zm-9.944,-2.857c-0.122,-0.207 -0.285,-0.332 -0.571,-0.415c-0.244,-0.082 -0.489,-0.082 -0.733,-0.041c-0.204,-0.29 -0.449,-0.58 -0.734,-0.828c-0.244,-0.166 -0.57,-0.29 -0.978,-0.331c-0.285,0.621 -0.244,1.325 0.204,2.029c-0.204,0.165 -0.326,0.372 -0.367,0.662c-0.041,0.083 -0.041,0.207 -0.041,0.331c0.041,0.083 0.041,0.207 0.082,0.332c0.367,-0.083 0.652,-0.166 0.978,-0.166c0.285,-0.041 0.652,0 1.06,0.083c0.122,-0.331 0.244,-0.663 0.448,-0.911c0.204,-0.29 0.407,-0.538 0.652,-0.745Zm8.029,0.662l5.909,-2.774l-6.276,-12.547c0.163,-0.29 0.285,-0.497 0.367,-0.704c0.244,-0.497 0.407,-0.952 0.53,-1.284c0.04,-0.331 0.122,-0.745 0.122,-1.283l-0,-0.704l8.925,17.888l-8.273,3.975l-1.304,-2.567Zm12.797,-2.526l2.527,-0.911l-6.073,-16.356l0,-0.373c0,-0.248 0.082,-0.455 0.163,-0.621c0.082,-0.166 0.286,-0.373 0.571,-0.662c0.122,-0.083 0.285,-0.208 0.489,-0.332c-0.122,0.042 -0.204,0.083 -0.245,0.124c-0.448,0.208 -0.815,0.373 -1.182,0.497c-0.407,0.125 -0.733,0.207 -1.059,0.249c-0.489,0.041 -1.019,-0.042 -1.59,-0.29c-0.163,-0.083 -0.407,-0.207 -0.692,-0.373l7.091,19.048Zm5.91,-0.083l-0.041,0l-0,-0.041l0.041,-0l-0,0.041Zm13.327,-9.275l-0.734,-2.816l-0.489,0.124c-0.897,0.207 -1.467,0.539 -1.712,0.911c-0.204,0.414 -0.244,0.994 -0.041,1.781l0.163,0.704l2.813,-0.704Zm-5.543,-3.52c0.204,-0.538 0.57,-0.952 1.1,-1.325c0.489,-0.331 1.141,-0.58 1.916,-0.745l1.182,-0.29l0.244,-0.083c0.326,-0.083 0.571,-0.166 0.774,-0.248c0.164,-0.083 0.327,-0.207 0.53,-0.414c0.204,-0.249 0.367,-0.58 0.449,-1.077c0.122,-0.497 0.203,-0.787 0.285,-0.87l2.771,10.974l-5.665,1.407l0.734,3.023c-0,0.332 -0.041,0.58 -0.041,0.746c-0.081,0.579 -0.163,0.993 -0.326,1.242c-0.285,0.414 -0.611,0.787 -1.019,1.035c-0.407,0.29 -0.856,0.456 -1.345,0.58c-0.937,0.207 -1.793,0.165 -2.649,-0.124c-0.896,-0.373 -1.508,-0.911 -1.875,-1.698c0.326,0.165 0.612,0.29 0.938,0.331c0.367,0.042 0.693,0.042 1.019,-0.041c0.326,-0.083 0.652,-0.249 0.978,-0.456c0.326,-0.207 0.611,-0.455 0.896,-0.787c0.204,-0.248 0.326,-0.662 0.367,-1.2c0,-0.166 0,-0.456 -0.041,-0.787l-1.304,-5.052c0,-0.083 0,-0.124 -0.04,-0.207c-0,-0.083 -0.041,-0.207 -0.082,-0.331c-0.122,-0.539 -0.204,-1.036 -0.204,-1.532c0,-0.746 0.123,-1.408 0.408,-2.071Zm20.5,3.851l-1.06,0.166c0,0.124 0.041,0.248 0.041,0.372c0.041,0.125 0.041,0.29 0.081,0.456c0.123,0.662 0.204,1.284 0.286,1.822c0.04,0.538 0.04,0.952 -0,1.242c-0.041,0.331 -0.082,0.58 -0.123,0.746c-0.081,0.579 -0.203,0.993 -0.407,1.242c-0.285,0.372 -0.652,0.704 -1.06,0.952c-0.448,0.249 -0.896,0.373 -1.385,0.497c-0.938,0.124 -1.794,0.041 -2.609,-0.331c-0.856,-0.414 -1.467,-1.035 -1.752,-1.822c0.285,0.207 0.57,0.331 0.896,0.414c0.326,0.041 0.693,0.083 1.019,-0c0.326,-0.041 0.693,-0.166 1.019,-0.373c0.326,-0.165 0.611,-0.414 0.897,-0.704c0.244,-0.248 0.448,-0.704 0.611,-1.366c0.041,-0.207 0.082,-0.538 0.122,-0.911l-0.326,-1.781l-5.665,0.994c0.041,-0.29 0.123,-0.497 0.163,-0.704c0.082,-0.414 0.204,-0.787 0.326,-1.159c0.041,-0.207 0.041,-0.414 0,-0.704c-0.04,-0.249 -0.122,-0.497 -0.203,-0.704c-0.041,-0.042 -0.041,-0.083 -0.082,-0.124c-0.163,-0.787 -0.204,-1.574 -0.163,-2.319c0.082,-0.787 0.245,-1.367 0.489,-1.781c0.611,-0.911 1.508,-1.449 2.731,-1.698l1.63,-0.248c0.448,-0.083 0.774,-0.29 0.978,-0.621c0.163,-0.207 0.367,-0.704 0.652,-1.532l1.304,7.37l1.06,-0.165l0.53,2.774Zm-4.239,-2.153l-0.53,-2.899l-0.407,0.083c-0.775,0.124 -1.264,0.414 -1.467,0.87c-0.041,0.124 -0.082,0.372 -0.041,0.786c-0,0.456 0.041,0.787 0.122,1.119l0.082,0.414l2.241,-0.373Zm3.342,-0.87l6.48,-0.745l-1.711,-13.872c0.244,-0.207 0.407,-0.373 0.57,-0.538c0.367,-0.414 0.693,-0.745 0.897,-1.077c0.204,-0.248 0.367,-0.621 0.57,-1.118c0.041,-0.165 0.123,-0.414 0.245,-0.704l2.119,16.978l1.101,-0.125l0.366,2.816l-10.27,1.201l-0.367,-2.816Zm27.021,1.036l-6.032,0.207c-0.367,-0.87 -0.815,-1.574 -1.263,-2.112c-0.286,-0.373 -0.897,-0.911 -1.793,-1.615c-0.408,0.373 -0.734,0.704 -1.019,0.952c-0.245,0.29 -0.489,0.539 -0.652,0.787c-0.408,0.58 -0.775,1.325 -1.101,2.195l-5.502,0.207l-0.122,-2.858l3.831,-0.124c0.122,-0.248 0.285,-0.497 0.448,-0.745c0.123,-0.249 0.245,-0.456 0.326,-0.538c0.082,-0.083 0.245,-0.249 0.489,-0.497c0.204,-0.207 0.326,-0.414 0.449,-0.539c-0.734,-0.414 -1.875,-0.579 -3.383,-0.538c-0.041,-0.869 0.163,-1.698 0.611,-2.402c0.449,-0.662 1.182,-1.283 2.12,-1.822c-0.041,-1.035 0.285,-1.946 0.896,-2.774c0.245,-0.29 0.53,-0.58 0.938,-0.87c0.366,-0.289 0.815,-0.538 1.304,-0.786c1.019,0.372 1.793,0.869 2.364,1.49c0.692,0.704 1.018,1.615 1.059,2.733c1.019,0.456 1.793,0.994 2.283,1.657c0.244,0.331 0.448,0.662 0.611,1.076c0.122,0.373 0.204,0.787 0.204,1.284c-1.508,0.041 -2.649,0.331 -3.383,0.787c0.448,0.414 0.774,0.704 0.978,0.911c0.245,0.29 0.571,0.704 0.937,1.283l4.28,-0.165l0.122,2.816Zm-7.417,-7.081c-0,-0.207 -0.123,-0.414 -0.286,-0.621c-0.204,-0.166 -0.407,-0.29 -0.652,-0.332c-0.041,-0.372 -0.122,-0.745 -0.244,-1.076c-0.123,-0.249 -0.367,-0.539 -0.734,-0.787c-0.53,0.455 -0.815,1.077 -0.774,1.905c-0.286,0.041 -0.489,0.207 -0.652,0.414c-0.082,0.083 -0.123,0.165 -0.163,0.29c-0.041,0.082 -0.082,0.207 -0.123,0.331c0.367,0.083 0.693,0.166 0.938,0.29c0.285,0.124 0.611,0.29 0.896,0.538c0.286,-0.248 0.571,-0.414 0.856,-0.58c0.326,-0.165 0.611,-0.289 0.938,-0.372Zm6.683,4.265l6.562,-0l0,-13.955c0.245,-0.165 0.448,-0.331 0.611,-0.455c0.449,-0.373 0.815,-0.663 1.06,-0.953c0.204,-0.248 0.448,-0.621 0.693,-1.076c0.081,-0.166 0.204,-0.373 0.326,-0.663l-0,19.959l-9.252,-0l0,-2.857Zm12.553,3.354l2.69,0.248l1.549,-17.35c0.04,-0.165 0.122,-0.248 0.163,-0.331c0.122,-0.207 0.244,-0.373 0.407,-0.497c0.163,-0.124 0.449,-0.248 0.815,-0.331c0.123,-0.042 0.326,-0.083 0.571,-0.124l-0.285,-0c-0.449,-0 -0.897,-0 -1.223,-0.042c-0.448,-0.041 -0.815,-0.083 -1.1,-0.166c-0.449,-0.165 -0.897,-0.496 -1.305,-0.952c-0.122,-0.124 -0.285,-0.331 -0.489,-0.621l-1.793,20.166Zm5.38,2.526l-0.041,-0l-0.041,-0.042l0.041,-0.041l0.041,-0l-0,0.083Zm5.013,1.863c-0,0.87 0.326,1.615 1.019,2.278c0.652,0.621 1.426,1.035 2.323,1.159c0.489,0.083 0.978,0.083 1.467,0c0.489,-0.083 0.937,-0.248 1.386,-0.538c0.244,-0.166 0.489,-0.456 0.815,-0.953c0.081,-0.165 0.203,-0.414 0.326,-0.704l2.037,-11.138c-0.366,0.372 -0.774,0.662 -1.141,0.828c-0.285,0.124 -0.774,0.248 -1.385,0.372c-0.367,0.042 -0.652,0.083 -0.856,0.083c-0.204,0 -0.53,-0.041 -1.019,-0.124c0.326,0.455 0.57,1.035 0.815,1.656c0.041,0.29 0.081,0.58 0.163,0.911l-0.937,5.135c-0.123,0.331 -0.204,0.538 -0.286,0.704c-0.244,0.497 -0.529,0.828 -0.856,0.994c-0.774,0.372 -1.507,0.497 -2.241,0.372c-0.326,-0.082 -0.652,-0.165 -0.897,-0.331c-0.285,-0.166 -0.53,-0.414 -0.733,-0.704Zm11.982,-1.201l2.649,0.497l3.383,-17.101c0.081,-0.125 0.163,-0.208 0.203,-0.29c0.123,-0.207 0.286,-0.332 0.489,-0.456c0.163,-0.083 0.449,-0.165 0.816,-0.248c0.163,-0.042 0.326,-0.042 0.57,-0.083l-0.244,-0c-0.489,-0.041 -0.897,-0.083 -1.264,-0.166c-0.407,-0.083 -0.774,-0.207 -1.019,-0.29c-0.448,-0.207 -0.856,-0.579 -1.222,-1.076c-0.123,-0.166 -0.245,-0.373 -0.408,-0.663l-3.953,19.876Zm20.826,5.632l-11.819,-3.313l-0.408,1.367c-0.041,0.207 -0.041,0.372 -0.081,0.497c-0,0.704 0.285,1.242 0.896,1.573c-0.652,0.041 -1.059,0.083 -1.182,0.124c-0.04,0 -0.285,0.042 -0.774,0.166c-0.448,0.083 -1.06,0.29 -1.752,0.58c-0.245,0.082 -0.53,0.248 -0.938,0.414l2.405,-8.158l11.86,3.313l1.222,-4.141c-0.407,-0.124 -0.815,-0.041 -1.263,0.249c-0.122,0.041 -0.285,0.207 -0.448,0.414c-0.163,0.248 -0.245,0.331 -0.327,0.331l-10.27,-2.899l2.405,-8.157c0.163,0.497 0.407,0.911 0.652,1.242c0.204,0.249 0.57,0.538 1.1,0.911c0.285,0.207 0.53,0.373 0.693,0.456c0.204,0.082 0.53,0.207 0.978,0.331c-0.489,0.29 -0.978,0.704 -1.426,1.159c-0.204,0.249 -0.367,0.456 -0.53,0.704c-0.041,0.124 -0.082,0.29 -0.122,0.497c-0.041,0.207 -0.082,0.331 -0.082,0.373c-0.081,0.248 -0.163,0.414 -0.204,0.497l6.603,1.863c0.04,0 0.244,-0.124 0.57,-0.331c0.367,-0.29 0.734,-0.414 1.06,-0.456c0.163,0 0.407,0 0.693,0.042c0.285,0.041 0.53,0.083 0.693,0.124c0.244,0.083 0.448,0.083 0.611,0.083c0.122,-0 0.367,-0 0.693,-0.083c0.326,-0.041 0.611,-0.124 0.937,-0.29c0.245,-0.124 0.53,-0.248 0.775,-0.373l-3.22,10.891Zm0.081,2.94l-0.04,-0l0.04,-0.083l0.041,0.041l-0.041,0.042Zm21.275,6.915l-12.268,-5.839l-0.611,1.284c-0.082,0.207 -0.163,0.331 -0.163,0.456c-0.163,0.704 0.041,1.283 0.571,1.739c-0.653,-0.083 -1.06,-0.124 -1.182,-0.124c-0.041,-0 -0.286,-0 -0.775,0.041c-0.489,-0 -1.1,0.083 -1.834,0.29c-0.244,0.041 -0.57,0.124 -1.019,0.248l3.831,-7.66l11.086,5.3l1.956,-3.851c-0.367,-0.207 -0.815,-0.166 -1.304,0c-0.163,0.041 -0.326,0.166 -0.53,0.373c-0.163,0.165 -0.285,0.248 -0.367,0.248l-9.577,-4.596l3.79,-7.619c0.082,0.538 0.204,0.952 0.448,1.325c0.123,0.29 0.449,0.621 0.897,1.076c0.245,0.29 0.448,0.456 0.611,0.58c0.163,0.124 0.449,0.249 0.897,0.456c-0.53,0.248 -1.06,0.538 -1.63,0.911c-0.204,0.207 -0.408,0.414 -0.652,0.621c-0.041,0.124 -0.082,0.29 -0.204,0.455c-0.082,0.207 -0.122,0.331 -0.163,0.373c-0.082,0.207 -0.163,0.373 -0.245,0.455l6.154,2.94c0.041,0 0.286,-0.041 0.652,-0.248c0.408,-0.166 0.775,-0.249 1.101,-0.249c0.163,0 0.407,0.083 0.693,0.166c0.285,0.083 0.489,0.166 0.652,0.249c0.244,0.124 0.407,0.165 0.57,0.207c0.123,-0 0.367,-0 0.693,0.041c0.326,-0 0.652,-0.041 1.019,-0.166c0.245,-0.082 0.53,-0.165 0.815,-0.248l-3.831,7.66l1.182,0.58l-1.263,2.526Zm10.881,4.058l0.245,-0.331c0.448,-0.621 0.611,-1.16 0.57,-1.532c-0.081,-0.414 -0.407,-0.787 -0.978,-1.16l-0.407,-0.29l-1.427,2.029l1.997,1.284Zm-4.238,-2.774l1.426,-2.029l-0.448,-0.29c-0.571,-0.373 -1.06,-0.497 -1.467,-0.414c-0.408,0.124 -0.856,0.455 -1.264,1.035l-0.244,0.373l1.997,1.325Zm-2.731,3.975l1.101,-1.615l-1.997,-1.325l-0.163,0.248c-0.367,0.497 -0.489,0.953 -0.367,1.325c0.122,0.332 0.448,0.704 1.019,1.077l0.407,0.29Zm8.355,-8.654c0.693,-0.166 1.345,-0.415 1.916,-0.746c0.529,-0.29 1.018,-0.621 1.467,-1.035c0.041,-0.083 0.163,-0.166 0.244,-0.29c0.123,-0.083 0.204,-0.207 0.245,-0.29c0.081,-0.083 0.122,-0.165 0.163,-0.248c-0,-0.042 0.041,-0.166 0.081,-0.331c0.041,-0.166 0.082,-0.332 0.123,-0.539c0.04,-0.165 0.04,-0.372 -0.041,-0.538c-0.082,-0.414 -0.285,-0.704 -0.571,-0.911c-0.04,-0.041 -0.122,-0.083 -0.163,-0.083c-0.611,-0.331 -1.263,-0.165 -1.834,0.497c-0.122,0.124 -0.163,0.207 -0.203,0.29c-0.245,0.29 -0.286,0.662 -0.164,1.077c0,0.124 0.123,0.414 0.286,0.911c-0.286,-0.083 -0.53,-0.166 -0.693,-0.249c-0.163,-0.041 -0.367,-0.166 -0.53,-0.248c-0.163,-0.125 -0.285,-0.207 -0.367,-0.332c-0.081,-0.082 -0.163,-0.207 -0.244,-0.414c-0.245,-0.579 -0.204,-1.159 0.163,-1.697c0.122,-0.166 0.326,-0.415 0.57,-0.58c0.204,-0.249 0.53,-0.456 0.856,-0.663c-0.244,-0.083 -0.53,-0.124 -0.774,-0.165c-0.204,-0.042 -0.408,-0.166 -0.693,-0.332c-0.571,-0.372 -0.978,-0.786 -1.223,-1.2c-0.244,-0.415 -0.366,-0.953 -0.326,-1.574c0,-0.207 0.041,-0.414 0.163,-0.621c0.082,-0.249 0.204,-0.456 0.367,-0.704c0.245,-0.331 0.53,-0.663 0.938,-1.035c0.081,-0.125 0.244,-0.249 0.448,-0.456c-0.041,0.497 -0.041,0.87 -0.041,1.16c0,0.869 0.082,1.532 0.285,2.029c0.082,0.207 0.163,0.372 0.245,0.538c0.081,0.124 0.204,0.29 0.367,0.538c0.285,0.332 0.57,0.621 0.856,0.87c0.285,0.248 0.652,0.538 1.1,0.828c0.204,0.124 0.408,0.248 0.693,0.373c0.693,0.372 1.141,0.579 1.263,0.662c0.163,0.124 0.286,0.207 0.408,0.332c0.122,0.082 0.244,0.248 0.367,0.455c0.081,0.207 0.163,0.414 0.203,0.621c0.041,0.166 0.041,0.414 0.041,0.745c0,0.415 -0.041,0.746 -0.163,1.077c-0.081,0.331 -0.244,0.663 -0.489,0.994c-0.204,0.248 -0.408,0.497 -0.611,0.704c-0.245,0.207 -0.489,0.373 -0.734,0.497c-0.448,0.248 -0.978,0.538 -1.589,0.828c-0.856,0.414 -1.386,0.662 -1.631,0.828l-0.896,0.414l0.774,0.497c0.53,0.331 0.856,0.704 1.06,1.077c0.081,0.165 0.204,0.621 0.326,1.366c0.204,1.16 -0.082,2.319 -0.856,3.478l-0.367,0.497l1.345,0.911l-1.63,2.361l-5.543,-3.686l-2.69,3.934l-2.282,-1.491c-1.508,-0.993 -2.405,-2.029 -2.649,-3.147c-0.204,-0.993 0.122,-2.111 0.937,-3.354l0.204,-0.207l-1.549,-0.994l1.631,-2.36l1.508,0.994l0.366,-0.538c0.815,-1.16 1.794,-1.822 2.975,-2.071c0.326,-0.083 1.06,0.083 2.079,0.497c0.53,0.207 1.019,0.331 1.467,0.29c0.448,0.083 0.815,0.083 1.06,0.083c0.815,0.041 1.467,-0 1.956,-0.124Zm13.123,22.567l-4.605,-3.809c0.326,-0.911 0.53,-1.698 0.53,-2.402c0.041,-0.497 -0.041,-1.284 -0.245,-2.36c-0.53,-0 -1.019,0.041 -1.385,0.082c-0.408,0 -0.734,0.042 -1.019,0.125c-0.734,0.165 -1.508,0.455 -2.323,0.911l-4.239,-3.479l1.875,-2.153l2.893,2.36c0.286,-0.082 0.571,-0.165 0.856,-0.248c0.286,-0.083 0.489,-0.124 0.612,-0.166c0.122,-0.041 0.366,-0.041 0.692,-0.083c0.327,0 0.53,-0.041 0.734,-0.082c-0.285,-0.787 -1.019,-1.657 -2.201,-2.609c0.612,-0.704 1.304,-1.16 2.12,-1.367c0.815,-0.207 1.793,-0.207 2.852,0.042c0.693,-0.828 1.549,-1.325 2.568,-1.491c0.367,-0.083 0.815,-0.083 1.263,-0.041c0.49,0.041 0.979,0.124 1.549,0.248c0.448,0.953 0.734,1.864 0.734,2.65c-0,0.994 -0.367,1.905 -1.101,2.733c0.449,0.994 0.612,1.905 0.571,2.733c-0.041,0.414 -0.122,0.787 -0.285,1.16c-0.163,0.372 -0.408,0.745 -0.734,1.118c-1.182,-0.953 -2.201,-1.491 -3.057,-1.615c0.082,0.621 0.082,1.035 0.082,1.325c0.041,0.373 -0.041,0.869 -0.163,1.532l3.301,2.692l-1.875,2.194Zm-0.652,-10.103c0.163,-0.208 0.204,-0.415 0.204,-0.663c0,-0.29 -0.081,-0.497 -0.245,-0.704c0.245,-0.29 0.449,-0.58 0.571,-0.952c0.082,-0.29 0.082,-0.621 0,-1.036c-0.734,-0.041 -1.345,0.249 -1.915,0.87c-0.204,-0.124 -0.449,-0.166 -0.734,-0.083c-0.122,0 -0.204,0.042 -0.326,0.083c-0.082,0.041 -0.204,0.124 -0.326,0.207c0.244,0.248 0.407,0.538 0.53,0.787c0.122,0.29 0.203,0.621 0.285,1.035c0.367,-0.041 0.693,0 1.019,0.083c0.367,0.083 0.652,0.207 0.937,0.373Zm5.91,16.48l-5.991,-6.294l2.119,-1.905l1.1,1.16c0.204,0.082 0.408,0.082 0.571,-0c0.163,-0.083 0.367,-0.207 0.571,-0.414c0.081,-0.042 0.163,-0.125 0.326,-0.29c0.122,-0.125 0.244,-0.249 0.326,-0.332c0.326,-0.248 0.611,-0.455 0.896,-0.621c0.286,-0.165 0.612,-0.207 1.019,-0.248c0.693,0.041 1.182,0.041 1.467,0.124c0.408,0.083 0.856,0.29 1.305,0.621l1.304,1.035c0.407,0.332 0.896,0.456 1.426,0.414c0.285,-0.041 0.693,-0.124 1.304,-0.248l-7.743,6.998Zm0.285,-3.851l2.201,-1.988c-0.285,-0.165 -0.489,-0.289 -0.652,-0.372c-0.489,-0.249 -0.897,-0.373 -1.264,-0.331c-0.326,0.041 -0.733,0.207 -1.222,0.579c-0.163,0.083 -0.367,0.249 -0.612,0.497l1.549,1.615Z" style="fill:#094;fill-rule:nonzero;"></path>
  <defs>
    <radialGradient id="_Radial1" cx="0" cy="0" r="1" gradientUnits="userSpaceOnUse" gradientTransform="matrix(205.218,0,0,205.218,268.103,275.289)">
      <stop offset="0" style="stop-color:#fefefe;stop-opacity:1"></stop>
      <stop offset="0.25" style="stop-color:#fefcdf;stop-opacity:1"></stop>
      <stop offset="0.5" style="stop-color:#fff684;stop-opacity:1"></stop>
      <stop offset="1" style="stop-color:#c4e43b;stop-opacity:1"></stop>
    </radialGradient>
  </defs>
</svg>